<?xml version="1.0" encoding="utf-8"?>
<svg xmlns="http://www.w3.org/2000/svg" fill="none" height="48" viewBox="0 0 72 48" width="72">
<path clip-rule="evenodd" d="M71.505 19.9999V27.9999C71.505 29.0999 70.605 29.9999 69.505 29.9999H44.005C42.905 29.9999 42.005 30.8999 42.005 31.9999V45.6799C42.005 46.7799 41.105 47.6799 40.005 47.6799H32.005C30.905 47.6799 30.005 46.7799 30.005 45.6799V31.9999C30.005 30.8999 29.105 29.9999 28.005 29.9999H2.50502C1.40502 29.9999 0.50502 29.0999 0.50502 27.9999V19.9999C0.50502 18.8999 1.40502 17.9999 2.50502 17.9999H28.005C29.105 17.9999 30.005 17.0999 30.005 15.9999V2.31995C30.005 1.21995 30.905 0.319946 32.005 0.319946H40.005C41.105 0.319946 42.005 1.21995 42.005 2.31995V15.9999C42.005 17.0999 42.905 17.9999 44.005 17.9999H69.505C70.605 17.9999 71.505 18.8999 71.505 19.9999ZM44.505 15.9999C44.225 15.9999 44.005 15.7799 44.005 15.4999V15.4899V15.4699L68.585 1.27995H72.005V3.63995L50.595 15.9999H44.505ZM21.415 31.9999H13.915L0.00502014 40.0299V44.3599L21.415 31.9999ZM28.005 32.4999C28.005 32.2999 27.885 32.1299 27.715 32.0499L2.29501 46.7199H3.41501L27.995 32.5299V32.5099L28.005 32.4999ZM56.965 14.9999H58.085L72.005 6.96995V6.31995L56.965 14.9999ZM44.005 32.4999C44.005 32.2999 44.125 32.1299 44.295 32.0499V32.0399L69.705 46.7099H68.585L44.005 32.52V32.4999ZM50.585 31.9999L72.005 44.3599V40.0299L58.085 31.9999H50.585ZM0.00502014 6.31995L15.035 14.9999H13.915L0.00502014 6.96995V6.31995ZM0.00502014 3.63995L21.415 15.9999H27.505C27.785 15.9999 28.005 15.7799 28.005 15.4999V15.4799L3.41502 1.27995H0.00502014V3.62995V3.63995Z" fill="#6466E9" fill-rule="evenodd"/>
</svg>