<?xml version="1.0" encoding="UTF-8"?>
<svg version="1.1" xmlns="http://www.w3.org/2000/svg" width="1272" height="1374">
<path d="M0 0 C26.29715535 -0.33094438 52.47254081 -0.07213044 78.69512939 2.02996826 C79.3609906 2.0832428 80.02685181 2.13651733 80.71289062 2.19140625 C90.39138662 2.97640297 100.04582919 3.94438983 109.69512939 5.02996826 C110.83949463 5.15565186 111.98385986 5.28133545 113.16290283 5.41082764 C186.1291699 13.66957777 259.65590146 37.0934237 324.71612549 71.00360107 C326.92678778 72.15011283 329.14867201 73.27325465 331.37091064 74.39715576 C365.95349091 92.02965533 399.67837931 113.36011722 429.69512939 138.02996826 C431.33944704 139.34436664 432.98532236 140.65681836 434.63262939 141.96746826 C436.32113215 143.3203844 438.00860442 144.67458746 439.69512939 146.02996826 C441.04284424 147.11278076 441.04284424 147.11278076 442.41778564 148.21746826 C447.84920138 152.61760253 453.09442592 157.15849201 458.25372314 161.87371826 C460.54167548 163.89443776 462.89229551 165.74423412 465.32012939 167.59246826 C471.12376245 172.13524813 476.19425932 177.39856752 481.3381958 182.65911865 C482.00254639 183.33708496 482.66689697 184.01505127 483.35137939 184.71356201 C483.9475708 185.32771973 484.54376221 185.94187744 485.15802002 186.574646 C486.65020613 188.12841939 486.65020613 188.12841939 488.69512939 189.02996826 C488.69512939 189.68996826 488.69512939 190.34996826 488.69512939 191.02996826 C489.22751221 191.23750732 489.75989502 191.44504639 490.30841064 191.65887451 C493.66098655 193.58482237 496.19220811 196.23263892 498.88262939 198.96746826 C499.45996826 199.54939941 500.03730713 200.13133057 500.63214111 200.730896 C504.85267876 205.04012014 508.70590524 209.55547111 512.45294189 214.28387451 C514.92222242 217.30809788 517.53491387 220.17522562 520.19512939 223.02996826 C524.39183554 227.55088657 528.38736806 232.18780524 532.25372314 236.99481201 C534.08518677 239.27168759 535.93082598 241.53218918 537.79278564 243.78387451 C543.37261092 250.55072126 548.8012954 257.3609665 553.82696533 264.5512085 C556.12714014 267.8418126 558.47326989 271.08372524 560.89825439 274.28387451 C570.30337497 286.72648288 578.60196935 299.70347334 586.69512939 313.02996826 C587.57136782 314.46229887 588.44766244 315.89459511 589.32403564 317.32684326 C591.11585742 320.26982281 592.88108568 323.22703005 594.62286377 326.19989014 C595.39684585 327.52087595 596.17467089 328.83961273 596.95489502 330.15692139 C598.25480896 332.35810899 599.53936104 334.56759636 600.82012939 336.77996826 C601.22344482 337.46059326 601.62676025 338.14121826 602.04229736 338.84246826 C603.00582966 340.52875688 603.86029484 342.27639618 604.69512939 344.02996826 C603.3722667 347.99855635 601.90781465 348.2550843 598.23419189 350.13153076 C597.12302002 350.70387451 596.01184814 351.27621826 594.86700439 351.86590576 C593.11130127 352.7514917 593.11130127 352.7514917 591.32012939 353.65496826 C590.15739502 354.25309326 588.99466064 354.85121826 587.79669189 355.46746826 C579.22039319 359.85488033 579.22039319 359.85488033 575.69512939 361.02996826 C575.36512939 361.68996826 575.03512939 362.34996826 574.69512939 363.02996826 C572.13013091 364.43544688 569.57293198 365.75307827 566.94512939 367.02996826 C566.22841064 367.38574951 565.51169189 367.74153076 564.77325439 368.10809326 C561.7888588 369.57834697 558.8533759 370.96968388 555.74200439 372.15496826 C553.51836947 372.84461681 553.51836947 372.84461681 552.69512939 375.02996826 C550.25353749 376.26591056 547.81582718 377.41321741 545.32012939 378.52996826 C538.53426354 381.64275076 531.86681255 384.932454 525.25762939 388.40496826 C524.43536865 388.83358154 523.61310791 389.26219482 522.76593018 389.70379639 C521.61906738 390.30997803 521.61906738 390.30997803 520.44903564 390.92840576 C519.77171387 391.28595947 519.09439209 391.64351318 518.39654541 392.01190186 C516.52428039 393.03834848 516.52428039 393.03834848 514.69512939 395.02996826 C512.14641922 396.36349499 509.59449233 397.65002484 507.00762939 398.90496826 C502.86605807 400.9239363 498.77367475 402.95067687 494.80059814 405.28778076 C491.69512939 407.02996826 491.69512939 407.02996826 489.69512939 407.02996826 C489.36512939 407.68996826 489.03512939 408.34996826 488.69512939 409.02996826 C487.70512939 409.02996826 486.71512939 409.02996826 485.69512939 409.02996826 C485.36512939 409.68996826 485.03512939 410.34996826 484.69512939 411.02996826 C482.38980102 412.33632101 480.21941717 413.188539 477.69512939 414.02996826 C477.11247314 412.95102295 476.52981689 411.87207764 475.92950439 410.76043701 C469.63642863 399.21140522 462.86182535 388.05565435 455.69512939 377.02996826 C454.96423096 375.90074951 454.96423096 375.90074951 454.21856689 374.74871826 C444.16849022 359.27052531 433.37772834 344.32006194 421.69512939 330.02996826 C420.38248676 328.36341393 419.06999069 326.69674415 417.75762939 325.02996826 C414.34351712 320.75898075 410.75729544 316.68012322 407.06622314 312.64715576 C405.81917075 311.27067289 404.57642824 309.88937099 403.37823486 308.47015381 C397.59972572 301.66743096 391.26131524 295.41008105 384.95391846 289.10345459 C382.95849526 287.10584874 380.97121883 285.10037473 378.98419189 283.09442139 C372.57317354 276.65579193 366.15319346 270.47607448 358.99859619 264.85980225 C356.6612031 263.0030178 354.45657646 261.04782557 352.25762939 259.02996826 C347.01576761 254.31975438 341.36422448 250.20644084 335.69512939 246.02996826 C333.79868815 244.59327035 331.9028582 243.15576519 330.00762939 241.71746826 C316.66513265 231.74095899 303.03905906 222.50856636 288.69512939 214.02996826 C287.94537842 213.58298584 287.19562744 213.13600342 286.42315674 212.67547607 C257.93785716 195.71979529 228.01404943 180.99185764 196.69512939 170.02996826 C195.64953857 169.658396 194.60394775 169.28682373 193.52667236 168.9039917 C149.64248052 153.47925635 103.15468672 143.77292501 56.69512939 141.02996826 C55.38552246 140.94529297 54.07591553 140.86061768 52.72662354 140.77337646 C41.77402994 140.08898673 30.85549484 139.82768428 19.88262939 139.84246826 C19.04096222 139.84307251 18.19929504 139.84367676 17.3321228 139.84429932 C-22.55075725 139.92125615 -61.92362347 145.10298135 -100.67572021 154.47698975 C-103.30487061 155.02996826 -103.30487061 155.02996826 -106.30487061 155.02996826 C-106.30487061 155.68996826 -106.30487061 156.34996826 -106.30487061 157.02996826 C-108.94487061 157.02996826 -111.58487061 157.02996826 -114.30487061 157.02996826 C-114.63487061 157.68996826 -114.96487061 158.34996826 -115.30487061 159.02996826 C-117.06268311 159.48699951 -117.06268311 159.48699951 -119.42987061 159.84246826 C-125.50423079 160.93093743 -131.17002124 162.89662016 -136.98455811 164.90887451 C-143.26654308 167.02996826 -143.26654308 167.02996826 -146.30487061 167.02996826 C-146.63487061 167.68996826 -146.96487061 168.34996826 -147.30487061 169.02996826 C-149.30780029 169.67938232 -149.30780029 169.67938232 -151.97674561 170.29559326 C-159.1129526 172.13823267 -165.78363688 174.90349594 -172.55487061 177.77996826 C-173.21407501 178.05776123 -173.87327942 178.3355542 -174.55245972 178.62176514 C-185.25233189 183.13998343 -195.78567442 187.97605615 -206.24237061 193.02996826 C-206.89572388 193.34462036 -207.54907715 193.65927246 -208.222229 193.98345947 C-213.96820315 196.75992291 -219.67428229 199.52525939 -225.05877686 202.96746826 C-228.30487061 205.02996826 -228.30487061 205.02996826 -230.30487061 205.02996826 C-230.63487061 205.68996826 -230.96487061 206.34996826 -231.30487061 207.02996826 C-232.79481905 207.91734198 -234.32417165 208.73882007 -235.86737061 209.52996826 C-253.66569131 218.7799354 -253.66569131 218.7799354 -269.30487061 231.02996826 C-270.63820394 231.69663493 -271.97153727 232.3633016 -273.30487061 233.02996826 C-273.96487061 233.68996826 -274.62487061 234.34996826 -275.30487061 235.02996826 C-276.62754787 236.04402083 -277.96211892 237.04265084 -279.30487061 238.02996826 C-280.24266357 238.74539795 -280.24266357 238.74539795 -281.19940186 239.47528076 C-283.12918332 240.90023999 -285.09156477 242.18485747 -287.11737061 243.46746826 C-291.70495274 246.50280317 -296.00515384 249.85578942 -300.30487061 253.27996826 C-300.97623047 253.81162598 -301.64759033 254.34328369 -302.33929443 254.89105225 C-302.96730957 255.39580078 -303.59532471 255.90054932 -304.24237061 256.42059326 C-304.80826904 256.87466553 -305.37416748 257.32873779 -305.95721436 257.79656982 C-307.44362336 259.00924588 -307.44362336 259.00924588 -308.30487061 261.02996826 C-309.04221436 261.4721167 -309.77955811 261.91426514 -310.53924561 262.36981201 C-313.54908805 264.17656772 -315.95885495 266.23351392 -318.55487061 268.59246826 C-319.86197998 269.77002686 -319.86197998 269.77002686 -321.19549561 270.97137451 C-323.35189709 272.85088631 -323.35189709 272.85088631 -324.30487061 275.02996826 C-325.04189209 275.46309326 -325.77891357 275.89621826 -326.53826904 276.34246826 C-329.67228167 278.25407215 -331.97229714 280.43836182 -334.57049561 283.02996826 C-335.04936218 283.50692139 -335.52822876 283.98387451 -336.02160645 284.47528076 C-337.0257127 285.47803349 -338.02732777 286.48328641 -339.02655029 287.49090576 C-340.55724023 289.03235454 -342.09837376 290.56278131 -343.64080811 292.09246826 C-344.61801292 293.0709939 -345.59459758 294.05013934 -346.57049561 295.02996826 C-347.89742432 296.36028076 -347.89742432 296.36028076 -349.25115967 297.71746826 C-351.49184082 299.93502968 -351.49184082 299.93502968 -352.30487061 303.02996826 C-353.83612061 304.50262451 -353.83612061 304.50262451 -355.80487061 306.09246826 C-364.24534039 313.26912439 -371.75529124 322.1113921 -378.30487061 331.02996826 C-378.30487061 331.68996826 -378.30487061 332.34996826 -378.30487061 333.02996826 C-378.99709717 333.55719482 -379.68932373 334.08442139 -380.40252686 334.62762451 C-384.22355424 337.79038607 -386.85022492 341.46242557 -389.74237061 345.46746826 C-390.34855225 346.29931641 -390.95473389 347.13116455 -391.57928467 347.98822021 C-410.50187856 372.58793945 -410.50187856 372.58793945 -424.30487061 400.02996826 C-424.96487061 400.02996826 -425.62487061 400.02996826 -426.30487061 400.02996826 C-426.96487061 402.33996826 -427.62487061 404.64996826 -428.30487061 407.02996826 C-428.96487061 407.02996826 -429.62487061 407.02996826 -430.30487061 407.02996826 C-430.61424561 407.97871826 -430.92362061 408.92746826 -431.24237061 409.90496826 C-432.3875175 413.27304737 -433.79610861 415.77786186 -435.74237061 418.71746826 C-437.45329851 421.41660452 -438.68806273 423.81097749 -439.49237061 426.90496826 C-440.30487061 430.02996826 -440.30487061 430.02996826 -442.30487061 432.02996826 C-442.30487061 432.68996826 -442.30487061 433.34996826 -442.30487061 434.02996826 C-442.96487061 434.02996826 -443.62487061 434.02996826 -444.30487061 434.02996826 C-444.30487061 435.34996826 -444.30487061 436.66996826 -444.30487061 438.02996826 C-444.96487061 438.02996826 -445.62487061 438.02996826 -446.30487061 438.02996826 C-446.30487061 439.34996826 -446.30487061 440.66996826 -446.30487061 442.02996826 C-446.96487061 442.02996826 -447.62487061 442.02996826 -448.30487061 442.02996826 C-448.24299561 442.79309326 -448.18112061 443.55621826 -448.11737061 444.34246826 C-448.30487061 447.02996826 -448.30487061 447.02996826 -449.65887451 448.33905029 C-451.84629021 450.58616407 -452.66451708 452.86426622 -453.82830811 455.77215576 C-454.29237061 456.92199951 -454.75643311 458.07184326 -455.23455811 459.25653076 C-455.71151123 460.46051514 -456.18846436 461.66449951 -456.67987061 462.90496826 C-457.38369873 464.65293701 -457.38369873 464.65293701 -458.10174561 466.43621826 C-461.24686784 474.27295929 -464.27292955 482.14692151 -467.30487061 490.02996826 C-455.42487061 489.69996826 -443.54487061 489.36996826 -431.30487061 489.02996826 C-430.64487061 484.07996826 -429.98487061 479.12996826 -429.30487061 474.02996826 C-428.97487061 473.03996826 -428.64487061 472.04996826 -428.30487061 471.02996826 C-419.24235986 470.76028635 -410.35828063 471.57364323 -401.36737061 472.59246826 C-400.60641083 472.67722412 -399.84545105 472.76197998 -399.06143188 472.8493042 C-385.44036419 474.38148358 -371.90163532 476.36874858 -358.36737061 478.52996826 C-357.46745392 478.6732254 -356.56753723 478.81648254 -355.64035034 478.96408081 C-342.47941218 481.07172685 -329.38511259 483.47139352 -316.30487061 486.02996826 C-314.62929077 486.35481201 -314.62929077 486.35481201 -312.91986084 486.68621826 C-286.29671434 491.90324636 -260.11144522 498.67127087 -234.30487061 507.02996826 C-233.14874268 507.39815674 -231.99261475 507.76634521 -230.80145264 508.14569092 C-203.71365291 516.78497702 -176.97377025 526.75689567 -151.30487061 539.02996826 C-150.27402344 539.52158447 -150.27402344 539.52158447 -149.22235107 540.02313232 C-138.34356904 545.25096984 -127.77382596 551.02861441 -117.30487061 557.02996826 C-116.54786865 557.4622876 -115.7908667 557.89460693 -115.01092529 558.34002686 C-102.47224746 565.5485727 -90.49970577 573.50724935 -78.59637451 581.7074585 C-78.00990143 582.11059769 -77.42342834 582.51373688 -76.81918335 582.92909241 C-75.2149263 584.03314289 -73.61332615 585.14105115 -72.01190186 586.24920654 C-69.81327699 587.69552416 -67.68951293 588.93084165 -65.30487061 590.02996826 C-66.6138278 586.90799349 -66.6138278 586.90799349 -69.30487061 585.02996826 C-69.30487061 584.36996826 -69.30487061 583.70996826 -69.30487061 583.02996826 C-69.86174561 582.80309326 -70.41862061 582.57621826 -70.99237061 582.34246826 C-73.31146528 581.02622534 -74.89621753 579.51700387 -76.74237061 577.61590576 C-97.3446083 556.7046345 -123.9094878 541.51066362 -149.47381592 527.57684326 C-151.93417686 526.23251359 -154.38292339 524.87000364 -156.82830811 523.49871826 C-175.31128438 512.36120101 -175.31128438 512.36120101 -195.30487061 507.02996826 C-195.30487061 506.36996826 -195.30487061 505.70996826 -195.30487061 505.02996826 C-195.90275391 504.86053711 -196.50063721 504.69110596 -197.11663818 504.51654053 C-203.54846724 502.64674309 -209.7514901 500.39010886 -215.99237061 497.96746826 C-225.78353812 494.23731377 -235.65584207 490.83206143 -245.61737061 487.59246826 C-246.27023041 487.37750702 -246.92309021 487.16254578 -247.59573364 486.94107056 C-255.43664897 484.36598609 -263.13185574 482.22831109 -271.30487061 481.02996826 C-271.30487061 480.36996826 -271.30487061 479.70996826 -271.30487061 479.02996826 C-273.11471436 478.88108154 -273.11471436 478.88108154 -274.96112061 478.72918701 C-281.3756246 478.01355018 -287.54731485 476.38090884 -293.80487061 474.84246826 C-324.38646422 467.52703328 -355.06069327 463.34978743 -386.30487061 460.02996826 C-386.30487061 459.03996826 -386.30487061 458.04996826 -386.30487061 457.02996826 C-385.34387451 456.59297607 -385.34387451 456.59297607 -384.36346436 456.14715576 C-377.23153905 452.76719712 -371.52054672 449.38513494 -367.11737061 442.71746826 C-365.30487061 440.02996826 -365.30487061 440.02996826 -363.5355835 439.34954834 C-360.88231641 438.9694316 -358.47746475 439.05401001 -355.80096436 439.22918701 C-354.13082275 439.33758911 -354.13082275 439.33758911 -352.42694092 439.44818115 C-345.71592399 439.93865635 -339.00885521 440.45152409 -332.30487061 441.02996826 C-331.63957336 441.08713013 -330.97427612 441.14429199 -330.28881836 441.20318604 C-270.23294536 446.45015923 -209.20803513 459.56113563 -153.88885498 483.89520264 C-151.45665082 484.96331346 -149.01570156 486.0076704 -146.57049561 487.04559326 C-120.79562427 498.09116814 -96.88450713 512.45607178 -74.30487061 529.02996826 C-73.60990479 529.53947021 -72.91493896 530.04897217 -72.19891357 530.57391357 C-50.60691355 546.46283632 -29.98681581 563.92994656 -13.30487061 585.02996826 C-12.77554932 585.69351318 -12.24622803 586.35705811 -11.7008667 587.04071045 C-4.43264683 596.16346622 2.48164356 605.38134088 8.80450439 615.18621826 C10.55367263 618.02008508 10.55367263 618.02008508 12.69512939 620.02996826 C13.67571292 618.57258725 14.65455072 617.11403151 15.63262939 615.65496826 C16.45053955 614.4368042 16.45053955 614.4368042 17.28497314 613.19403076 C18.70606819 611.10277642 18.70606819 611.10277642 19.69512939 609.02996826 C20.35512939 609.02996826 21.01512939 609.02996826 21.69512939 609.02996826 C21.94262939 608.49371826 22.19012939 607.95746826 22.44512939 607.40496826 C24.00165476 604.44757007 25.72948613 601.73272776 27.69512939 599.02996826 C28.35512939 599.02996826 29.01512939 599.02996826 29.69512939 599.02996826 C29.91298096 598.50531982 30.13083252 597.98067139 30.35528564 597.44012451 C32.20899604 594.10560756 34.64489098 591.33676165 37.13262939 588.46746826 C37.65961426 587.85484131 38.18659912 587.24221436 38.72955322 586.61102295 C43.1350625 581.54800438 47.79044113 576.80331486 52.61309814 572.13934326 C54.73601659 570.20655402 54.73601659 570.20655402 55.69512939 568.02996826 C56.35512939 568.02996826 57.01512939 568.02996826 57.69512939 568.02996826 C57.69512939 567.36996826 57.69512939 566.70996826 57.69512939 566.02996826 C58.35512939 566.02996826 59.01512939 566.02996826 59.69512939 566.02996826 C59.69512939 565.36996826 59.69512939 564.70996826 59.69512939 564.02996826 C61.32945694 562.55227609 63.02989307 561.14727507 64.75762939 559.77996826 C66.25616455 558.57920654 66.25616455 558.57920654 67.78497314 557.35418701 C68.74532471 556.58719482 69.70567627 555.82020264 70.69512939 555.02996826 C75.30133861 551.54275671 75.30133861 551.54275671 78.69512939 547.02996826 C79.68512939 547.02996826 80.67512939 547.02996826 81.69512939 547.02996826 C81.69512939 546.36996826 81.69512939 545.70996826 81.69512939 545.02996826 C83.27716064 543.80340576 83.27716064 543.80340576 85.50762939 542.40496826 C88.97237344 540.17380181 92.32480946 537.86279112 95.63262939 535.40496826 C101.51044187 531.08452491 107.57978422 527.06926154 113.67730713 523.06658936 C114.42697754 522.57239502 115.17664795 522.07820068 115.94903564 521.56903076 C116.62265137 521.12768799 117.29626709 520.68634521 117.99029541 520.23162842 C119.83462759 519.00419218 119.83462759 519.00419218 121.69512939 517.02996826 C123.61422289 515.85356678 125.55487708 514.71211047 127.50762939 513.59246826 C132.01405202 511.00313143 132.01405202 511.00313143 136.45684814 508.30731201 C138.69512939 507.02996826 138.69512939 507.02996826 140.69512939 507.02996826 C141.02512939 506.36996826 141.35512939 505.70996826 141.69512939 505.02996826 C142.68512939 505.02996826 143.67512939 505.02996826 144.69512939 505.02996826 C145.02512939 504.36996826 145.35512939 503.70996826 145.69512939 503.02996826 C146.68512939 503.02996826 147.67512939 503.02996826 148.69512939 503.02996826 C148.69512939 502.36996826 148.69512939 501.70996826 148.69512939 501.02996826 C151.78322635 499.26534143 152.92825075 499.02996826 156.69512939 499.02996826 C157.02512939 498.36996826 157.35512939 497.70996826 157.69512939 497.02996826 C158.68512939 497.02996826 159.67512939 497.02996826 160.69512939 497.02996826 C161.02512939 496.36996826 161.35512939 495.70996826 161.69512939 495.02996826 C162.68512939 495.02996826 163.67512939 495.02996826 164.69512939 495.02996826 C165.02512939 494.36996826 165.35512939 493.70996826 165.69512939 493.02996826 C166.68512939 493.02996826 167.67512939 493.02996826 168.69512939 493.02996826 C169.02512939 492.36996826 169.35512939 491.70996826 169.69512939 491.02996826 C172.16427356 489.90471484 174.60543427 488.8803769 177.13262939 487.90496826 C177.82678955 487.62781982 178.52094971 487.35067139 179.23614502 487.06512451 C184.41426425 485.02996826 184.41426425 485.02996826 186.69512939 485.02996826 C187.02512939 484.36996826 187.35512939 483.70996826 187.69512939 483.02996826 C189.85336848 482.14265966 192.04858833 481.3444324 194.25762939 480.59246826 C198.32500718 479.19467828 202.37930624 477.79180883 206.38262939 476.21746826 C209.69512939 475.02996826 209.69512939 475.02996826 212.69512939 475.02996826 C213.02512939 474.36996826 213.35512939 473.70996826 213.69512939 473.02996826 C215.98809814 472.21356201 215.98809814 472.21356201 218.88262939 471.46746826 C219.87391846 471.20965576 220.86520752 470.95184326 221.88653564 470.68621826 C224.69512939 470.02996826 224.69512939 470.02996826 228.32012939 469.46746826 C229.10387939 469.32309326 229.88762939 469.17871826 230.69512939 469.02996826 C231.02512939 468.36996826 231.35512939 467.70996826 231.69512939 467.02996826 C233.82672119 466.33001709 233.82672119 466.33001709 236.70684814 465.67449951 C241.70458326 464.4986052 246.68315122 463.2705488 251.65216064 461.97918701 C292.75799199 451.40419036 334.21660564 444.32322102 376.50762939 440.65496826 C377.9763298 440.52659576 377.9763298 440.52659576 379.47470093 440.39562988 C389.55438938 439.52806821 399.56767204 438.72223874 409.69512939 439.02996826 C410.02512939 439.83434326 410.35512939 440.63871826 410.69512939 441.46746826 C414.88293193 449.70608913 420.96844399 455.14127379 429.69512939 458.02996826 C429.69512939 458.68996826 429.69512939 459.34996826 429.69512939 460.02996826 C428.71681152 460.12495605 427.73849365 460.21994385 426.73052979 460.31781006 C398.92043247 463.03917576 371.23595588 466.28094288 343.831604 471.86199951 C340.35228654 472.56734103 337.26293793 473.02996826 333.69512939 473.02996826 C333.36512939 473.68996826 333.03512939 474.34996826 332.69512939 475.02996826 C330.05512939 475.02996826 327.41512939 475.02996826 324.69512939 475.02996826 C324.69512939 475.68996826 324.69512939 476.34996826 324.69512939 477.02996826 C322.70945231 477.25783285 320.72377523 477.48569743 318.73809814 477.71356201 C316.50116547 478.00167562 316.50116547 478.00167562 313.69512939 479.02996826 C312.10678204 479.31675813 310.51508229 479.58516923 308.92169189 479.84246826 C301.83831881 481.10111304 294.98412217 483.06268784 288.07012939 485.02996826 C285.55771408 485.74044636 283.04470562 486.44883076 280.53106689 487.15496826 C279.35769775 487.48496826 278.18432861 487.81496826 276.97540283 488.15496826 C274.11258768 488.91861291 271.26199981 489.56729027 268.35919189 490.15496826 C267.15005127 490.44371826 265.94091064 490.73246826 264.69512939 491.02996826 C264.36512939 491.68996826 264.03512939 492.34996826 263.69512939 493.02996826 C259.91044218 494.57824939 256.77731237 495.27009667 252.69512939 495.02996826 C252.36512939 495.68996826 252.03512939 496.34996826 251.69512939 497.02996826 C249.847229 497.71014404 249.847229 497.71014404 247.40997314 498.35028076 C241.18003328 500.11570728 235.25385029 502.47436381 229.25762939 504.90496826 C228.20253174 505.3264917 227.14743408 505.74801514 226.06036377 506.18231201 C219.90631173 508.65908127 213.85344633 511.28249339 207.8550415 514.11639404 C205.69512939 515.02996826 205.69512939 515.02996826 203.69512939 515.02996826 C203.36512939 515.68996826 203.03512939 516.34996826 202.69512939 517.02996826 C201.70512939 517.02996826 200.71512939 517.02996826 199.69512939 517.02996826 C199.36512939 517.68996826 199.03512939 518.34996826 198.69512939 519.02996826 C196.69122314 519.95965576 196.69122314 519.95965576 194.13262939 520.90496826 C190.71538463 522.20911045 187.44384685 523.59898052 184.19512939 525.27996826 C180.69512939 527.02996826 180.69512939 527.02996826 178.69512939 527.02996826 C178.36512939 527.68996826 178.03512939 528.34996826 177.69512939 529.02996826 C175.86642724 529.97669939 174.00450141 530.85924535 172.13262939 531.71746826 C160.76506294 537.15393135 150.28255203 544.23788904 139.69512939 551.02996826 C139.02078857 551.46019287 138.34644775 551.89041748 137.65167236 552.3336792 C129.06890304 557.82684758 119.93255424 563.79254341 112.69512939 571.02996826 C111.620328 571.83318006 110.53536899 572.62283986 109.44512939 573.40496826 C105.22981732 576.54303392 101.20408554 579.88520605 97.19512939 583.27996826 C96.55929932 583.81154541 95.92346924 584.34312256 95.26837158 584.89080811 C93.70460539 586.22576164 92.19459087 587.62317014 90.69512939 589.02996826 C90.69512939 589.68996826 90.69512939 590.34996826 90.69512939 591.02996826 C92.01512939 590.36996826 93.33512939 589.70996826 94.69512939 589.02996826 C94.69512939 588.36996826 94.69512939 587.70996826 94.69512939 587.02996826 C96.34512939 586.36996826 97.99512939 585.70996826 99.69512939 585.02996826 C99.69512939 584.36996826 99.69512939 583.70996826 99.69512939 583.02996826 C100.29325439 582.78246826 100.89137939 582.53496826 101.50762939 582.27996826 C103.82090822 581.17438099 103.82090822 581.17438099 105.07012939 578.96746826 C106.69512939 577.02996826 106.69512939 577.02996826 109.35528564 576.67840576 C113.45231848 575.88295845 116.3623788 574.01652744 119.75762939 571.71746826 C120.65578369 571.13062256 120.65578369 571.13062256 121.57208252 570.53192139 C124.33061877 568.71001848 126.89841013 566.8602303 129.44122314 564.73699951 C131.69512939 563.02996826 131.69512939 563.02996826 134.69512939 563.02996826 C134.69512939 562.36996826 134.69512939 561.70996826 134.69512939 561.02996826 C136.27587504 560.21244523 137.85984163 559.40114829 139.44512939 558.59246826 C140.32684814 558.14000732 141.20856689 557.68754639 142.11700439 557.22137451 C144.33711506 556.19541428 146.30957559 555.51488224 148.69512939 555.02996826 C148.69512939 554.36996826 148.69512939 553.70996826 148.69512939 553.02996826 C153.64707633 550.03546632 158.49599931 547.82639659 163.94512939 545.90496826 C169.52976659 543.92273637 169.52976659 543.92273637 174.69512939 541.02996826 C175.68512939 541.02996826 176.67512939 541.02996826 177.69512939 541.02996826 C177.69512939 540.36996826 177.69512939 539.70996826 177.69512939 539.02996826 C179.01512939 539.02996826 180.33512939 539.02996826 181.69512939 539.02996826 C181.69512939 538.36996826 181.69512939 537.70996826 181.69512939 537.02996826 C183.01512939 537.02996826 184.33512939 537.02996826 185.69512939 537.02996826 C185.69512939 536.36996826 185.69512939 535.70996826 185.69512939 535.02996826 C186.56524658 534.75733154 186.56524658 534.75733154 187.45294189 534.47918701 C191.13556712 533.29418385 194.55080438 532.10349233 198.00762939 530.34246826 C200.69512939 529.02996826 200.69512939 529.02996826 204.69512939 529.02996826 C204.69512939 528.36996826 204.69512939 527.70996826 204.69512939 527.02996826 C206.34512939 527.02996826 207.99512939 527.02996826 209.69512939 527.02996826 C209.69512939 526.36996826 209.69512939 525.70996826 209.69512939 525.02996826 C211.34512939 525.02996826 212.99512939 525.02996826 214.69512939 525.02996826 C214.69512939 524.36996826 214.69512939 523.70996826 214.69512939 523.02996826 C217.70245361 522.02752686 220.70977783 521.02508545 223.71710205 520.02264404 C224.40207764 519.79431885 225.08705322 519.56599365 225.79278564 519.33074951 C234.57012939 516.40496826 234.57012939 516.40496826 236.5244751 515.75482178 C237.88287864 515.30120575 239.24037668 514.84485863 240.59649658 514.38446045 C247.38054542 512.09250775 254.22265809 509.99831615 261.07012939 507.90496826 C263.39053316 507.19432869 265.71084988 506.48340483 268.03106689 505.77215576 C269.04733154 505.46133057 270.06359619 505.15050537 271.11065674 504.83026123 C272.97896335 504.25173213 274.83966747 503.64845557 276.69512939 503.02996826 C282.37009485 501.44200569 288.06312985 499.92120114 293.75762939 498.40496826 C294.59572144 498.18164825 295.43381348 497.95832825 296.29730225 497.72824097 C310.22815818 494.03517616 324.21456391 490.87366676 338.35552979 488.09979248 C339.04028885 487.96516098 339.72504791 487.83052948 340.43055725 487.69181824 C342.26949559 487.33247267 344.10971083 486.97967892 345.95001221 486.62738037 C348.64048727 486.1601166 348.64048727 486.1601166 350.69512939 485.02996826 C352.05371628 484.78888781 353.42012772 484.59103427 354.78887939 484.41668701 C355.64103027 484.30518311 356.49318115 484.1936792 357.37115479 484.07879639 C358.30306641 483.95955811 359.23497803 483.84031982 360.19512939 483.71746826 C368.73343421 482.5913825 377.24820257 481.35644888 385.75762939 480.02996826 C387.98547044 479.68606573 390.21333476 479.34231398 392.44122314 478.99871826 C395.37711035 478.54534042 398.3126713 478.09086877 401.24639893 477.62371826 C413.2490534 475.7156167 425.30338701 474.36413197 437.39013672 473.11883545 C439.15017724 472.93733591 440.90999378 472.7536484 442.66955566 472.56756592 C453.39147293 471.44107594 463.90960049 470.76475034 474.69512939 471.02996826 C475.46844784 477.73260241 475.79885648 484.28362415 475.69512939 491.02996826 C476.46017288 490.96013733 477.22521637 490.8903064 478.01344299 490.81835938 C488.96734381 489.91921538 499.87841682 489.84823434 510.86309814 489.82684326 C511.85047785 489.82401588 512.83785755 489.82118851 513.85515785 489.81827545 C519.05873497 489.80340946 524.26228515 489.79409502 529.46588135 489.78973389 C534.83713804 489.78420137 540.20814732 489.76003863 545.57932568 489.73176193 C549.72191621 489.71318868 553.86444569 489.70793327 558.00707436 489.70639801 C559.98907162 489.70336969 561.97106777 489.69533513 563.95302391 489.68221283 C566.70994962 489.66522955 569.46624935 489.66701101 572.22320557 489.67352295 C573.04134232 489.66430817 573.85947906 489.65509338 574.70240784 489.64559937 C580.15600294 489.68611794 580.15600294 489.68611794 582.47200298 491.16324329 C584.33891586 494.0125096 583.58741241 495.96802788 582.98641968 499.26506042 C582.77590092 500.52398542 582.56538216 501.78291042 582.34848404 503.07998466 C582.18080827 504.06277275 582.18080827 504.06277275 582.00974512 505.06541514 C581.51617511 508.14741145 581.19063257 511.24204474 580.86306763 514.34553528 C580.66172462 516.25212669 580.66172462 516.25212669 580.45631409 518.19723511 C580.31565467 519.55431614 580.17504663 520.9114025 580.03448486 522.26849365 C579.87990892 523.74168719 579.72510124 525.21485642 579.57008362 526.68800354 C579.15202399 530.66717945 578.73720387 534.64668695 578.32299948 538.62626576 C577.87887183 542.88785691 577.43172522 547.14913142 576.98495483 551.41044617 C576.13180445 559.55223867 575.28138394 567.69431393 574.43192208 575.836492 C573.49697267 584.79669887 572.55880476 593.75656767 571.62041426 602.71641469 C568.55521781 631.98615525 565.50056658 661.25699055 562.46173096 690.52947998 C562.37103246 691.40305189 562.28033396 692.27662379 562.18688703 693.17666757 C561.32062229 701.52032972 560.45462398 709.86401907 559.59044564 718.2078976 C559.27814745 721.22251125 558.96548488 724.23708704 558.65275502 727.25165594 C558.50277934 728.69820622 558.35296838 730.14477359 558.2033298 731.59135878 C557.42430821 739.12140011 556.63239101 746.64961402 555.80297852 754.17428589 C555.66217299 755.45895532 555.52136745 756.74362474 555.37629509 758.06722355 C555.11313382 760.45832467 554.84684692 762.84908488 554.5767231 765.23940945 C553.86039762 771.69013685 553.86039762 771.69013685 553.67807007 778.17082214 C553.69512939 781.02996826 553.69512939 781.02996826 552.69512939 783.02996826 C552.46154758 785.86755479 552.27497079 788.68780733 552.13262939 791.52996826 C552.0894458 792.31500732 552.04626221 793.10004639 552.00177002 793.90887451 C551.77530104 797.96711288 551.77530104 797.96711288 551.69512939 802.02996826 C551.03512939 802.02996826 550.37512939 802.02996826 549.69512939 802.02996826 C549.70673096 803.2455542 549.71833252 804.46114014 549.73028564 805.71356201 C549.73966218 807.2981959 549.74876252 808.88283144 549.75762939 810.46746826 C549.7660083 811.26990967 549.77438721 812.07235107 549.78302002 812.89910889 C549.7916437 814.94292047 549.74741089 816.98680728 549.69512939 819.02996826 C549.36512939 819.35996826 549.03512939 819.68996826 548.69512939 820.02996826 C548.34159702 822.51513573 548.04674414 824.98485317 547.78717041 827.48040771 C547.70245483 828.26107101 547.61773926 829.04173431 547.53045654 829.84605408 C547.34626928 831.54881909 547.16413262 833.25180684 546.98376656 834.95498085 C546.69728286 837.65979828 546.40551077 840.3639986 546.11235046 843.06809998 C545.48920151 848.82569986 544.87321895 854.58405606 544.25762939 860.34246826 C543.54736082 866.9792056 542.83411688 873.61560746 542.11558342 880.25145531 C541.8301949 882.89861846 541.54909801 885.54621322 541.26826477 888.19386292 C540.33833894 896.85948715 539.28633017 905.45467684 537.69512939 914.02996826 C533.46483094 912.37605901 529.45120082 910.43088163 525.42559814 908.33465576 C524.40409416 907.80619553 524.40409416 907.80619553 523.36195374 907.26705933 C521.20105205 906.14852201 519.04182407 905.02679659 516.88262939 903.90496826 C515.41203587 903.14303794 513.94133388 902.38131693 512.47052002 901.61981201 C508.87726068 899.75934271 505.28610635 897.8948382 501.69512939 896.02996826 C502.93412931 881.86154657 504.32942931 867.71826068 505.88553429 853.5812397 C506.24776279 850.28945396 506.60735466 846.99738866 506.96632385 843.70524597 C507.48205384 838.97634176 507.99853841 834.24752104 508.51565552 829.51876831 C512.37334702 794.22458572 516.17734775 758.92845513 519.63262939 723.59246826 C521.93803902 700.01697118 524.37841382 676.45873776 526.93341064 652.90887451 C527.00515589 652.24742565 527.07690114 651.5859768 527.15082049 650.90448403 C528.66306941 636.96524675 530.18384699 623.02695413 531.71436977 609.08971119 C532.39204295 602.91634694 533.06777846 596.74277242 533.74200439 590.56903076 C533.87137453 589.38445471 534.00074467 588.19987865 534.13403511 586.97940636 C536.52700084 565.01517814 538.69007661 543.03280834 540.69512939 521.02996826 C519.87478488 520.81953032 519.87478488 520.81953032 499.07012939 521.46746826 C498.37484131 521.5067041 497.67955322 521.54593994 496.9631958 521.58636475 C494.35038922 521.75837286 491.83266545 522.00032806 489.27081299 522.5524292 C486.77989383 523.01425269 484.67235372 523.07379475 482.14825439 522.98699951 C473.21246947 522.91099467 464.33336794 523.89056457 455.44512939 524.71746826 C454.48038696 524.80644379 453.51564453 524.89541931 452.52166748 524.98709106 C413.1390745 528.64478558 374.05756323 534.2267691 335.38262939 542.59246826 C328.97020637 543.97835588 328.97020637 543.97835588 326.56378174 544.42987061 C322.543636 545.27085088 318.57652018 546.29930513 314.59747314 547.31512451 C312.80911476 547.76780819 311.02070163 548.22027564 309.23223877 548.67254639 C306.42495187 549.3836601 303.61805386 550.09618879 300.81207275 550.81243896 C298.095772 551.50511823 295.37802199 552.19184167 292.65997314 552.87762451 C291.40204201 553.20102562 291.40204201 553.20102562 290.11869812 553.53096008 C289.33430862 553.72793991 288.54991913 553.92491974 287.74176025 554.12786865 C287.05512802 554.30250137 286.36849579 554.47713409 285.66105652 554.65705872 C283.69512939 555.02996826 283.69512939 555.02996826 279.69512939 555.02996826 C279.36512939 555.68996826 279.03512939 556.34996826 278.69512939 557.02996826 C276.51155233 557.45259608 274.32637482 557.86765102 272.13653564 558.25653076 C266.7164918 559.47465639 261.480302 561.25454042 256.20928955 562.9977417 C255.01312012 563.38881104 255.01312012 563.38881104 253.79278564 563.78778076 C252.71782837 564.1457373 252.71782837 564.1457373 251.62115479 564.51092529 C249.69512939 565.02996826 249.69512939 565.02996826 246.69512939 565.02996826 C246.36512939 565.68996826 246.03512939 566.34996826 245.69512939 567.02996826 C243.62091064 567.84637451 243.62091064 567.84637451 241.00762939 568.59246826 C240.10786377 568.85028076 239.20809814 569.10809326 238.28106689 569.37371826 C235.69512939 570.02996826 235.69512939 570.02996826 232.13262939 570.59246826 C231.32825439 570.73684326 230.52387939 570.88121826 229.69512939 571.02996826 C229.36512939 571.68996826 229.03512939 572.34996826 228.69512939 573.02996826 C226.88018799 573.70135498 226.88018799 573.70135498 224.46856689 574.33465576 C217.91730283 576.19282402 211.64781182 578.65067729 205.32012939 581.15496826 C204.09729248 581.63707764 202.87445557 582.11918701 201.61456299 582.61590576 C189.99052794 587.22585937 178.41570727 592.07250958 167.28106689 597.77996826 C164.69512939 599.02996826 164.69512939 599.02996826 162.69512939 599.02996826 C162.36512939 599.68996826 162.03512939 600.34996826 161.69512939 601.02996826 C159.6994559 601.70947672 157.69827916 602.37282637 155.69512939 603.02996826 C152.90301133 604.32302792 150.17669286 605.7391579 147.44512939 607.15496826 C139.96329548 611.02996826 139.96329548 611.02996826 137.69512939 611.02996826 C137.36512939 611.68996826 137.03512939 612.34996826 136.69512939 613.02996826 C135.11958444 613.87716652 133.50685855 614.65532404 131.88262939 615.40496826 C125.749744 618.386129 119.91486105 621.76988598 114.07012939 625.27996826 C113.18091797 625.81154541 112.29170654 626.34312256 111.37554932 626.89080811 C106.76598549 629.60784902 106.76598549 629.60784902 102.69512939 633.02996826 C101.39415692 633.78483815 100.07330494 634.50575181 98.74200439 635.20574951 C93.24132604 638.21001688 88.10662139 641.66928078 82.94512939 645.21746826 C81.98445557 645.87513184 81.02378174 646.53279541 80.03399658 647.21038818 C67.81399206 655.43333642 67.81399206 655.43333642 56.69512939 665.02996826 C54.67388368 666.57958998 52.62201741 668.08372707 50.57012939 669.59246826 C48.59945865 671.03834676 48.59945865 671.03834676 46.69512939 673.02996826 C45.89075439 673.66934326 45.08637939 674.30871826 44.25762939 674.96746826 C41.80440057 676.8503484 41.80440057 676.8503484 40.2619791 678.53042316 C38.69512939 680.02996826 38.69512939 680.02996826 36.90207577 680.99853039 C34.46814584 682.43669946 33.24204636 683.63767181 31.69512939 686.02996826 C30.59684635 692.04997003 30.75177024 698.04434126 30.80865479 704.14642334 C30.80075555 706.03347643 30.78978732 707.92051877 30.77600098 709.80753803 C30.74712212 714.96940082 30.76163262 720.13036149 30.78344274 725.29222536 C30.79921488 730.79096293 30.77506585 736.2895335 30.75553894 741.78823853 C30.72753618 751.21438679 30.72488782 760.64026241 30.73980713 770.06643677 C30.76132191 783.67439407 30.74339847 797.2820811 30.71610761 810.89001763 C30.66362646 837.71781898 30.66817295 864.54544334 30.68875206 891.37327331 C30.69642942 901.75460851 30.69679782 912.13593573 30.69464111 922.51727295 C30.69435094 924.14045715 30.69406446 925.76364136 30.69378185 927.38682556 C30.69335911 929.73564721 30.69292379 932.08446885 30.69245261 934.43329048 C30.69083777 942.58563365 30.69041373 950.73797652 30.690979 958.89031982 C30.6910198 959.59533064 30.69106059 960.30034145 30.69110262 961.02671623 C30.69183298 970.08988632 30.69781093 979.15303789 30.70823765 988.21620178 C30.76824984 1040.50949824 30.50288388 1092.80017163 30.19512939 1145.09246826 C30.18911461 1146.11505344 30.18309982 1147.13763862 30.17690277 1148.19121122 C30.02403602 1174.13751248 29.86353972 1200.0837633 29.69512939 1226.02996826 C30.66070267 1225.39599876 30.66070267 1225.39599876 31.64578247 1224.7492218 C34.6166017 1222.80035893 37.58944432 1220.85460355 40.56231689 1218.90887451 C42.08055054 1217.91192566 42.08055054 1217.91192566 43.62945557 1216.89483643 C68.28650303 1200.77140038 97.5325583 1183.06360366 126.69512939 1177.02996826 C127.02512939 1176.36996826 127.35512939 1175.70996826 127.69512939 1175.02996826 C130.10137939 1174.28387451 130.10137939 1174.28387451 133.19512939 1173.59246826 C136.7988012 1172.77978454 140.2873501 1171.85687644 143.77716064 1170.65496826 C148.55652945 1169.02793843 153.40065598 1167.72837929 158.27764893 1166.42840576 C171.77850283 1162.82964097 185.02849795 1158.73964257 198.23492432 1154.18011475 C199.43093262 1153.76962891 200.62694092 1153.35914307 201.85919189 1152.93621826 C202.91573975 1152.56819092 203.9722876 1152.20016357 205.06085205 1151.82098389 C207.69512939 1151.02996826 207.69512939 1151.02996826 210.69512939 1151.02996826 C211.02512939 1150.36996826 211.35512939 1149.70996826 211.69512939 1149.02996826 C212.68512939 1149.02996826 213.67512939 1149.02996826 214.69512939 1149.02996826 C215.02512939 1148.36996826 215.35512939 1147.70996826 215.69512939 1147.02996826 C217.34512939 1147.02996826 218.99512939 1147.02996826 220.69512939 1147.02996826 C220.69512939 1146.36996826 220.69512939 1145.70996826 220.69512939 1145.02996826 C222.4637163 1144.35736475 224.23508956 1143.69208431 226.00762939 1143.02996826 C226.99376221 1142.65871826 227.97989502 1142.28746826 228.99591064 1141.90496826 C231.69512939 1141.02996826 231.69512939 1141.02996826 234.69512939 1141.02996826 C235.02512939 1140.36996826 235.35512939 1139.70996826 235.69512939 1139.02996826 C237.54522705 1138.16400146 237.54522705 1138.16400146 239.98419189 1137.26824951 C246.16674897 1134.8912728 252.10501517 1132.0910373 258.07012939 1129.21746826 C259.17123047 1128.68919434 260.27233154 1128.16092041 261.40679932 1127.61663818 C267.98475637 1124.43082895 274.36944203 1121.13235342 280.55841064 1117.23699951 C282.62630436 1116.06884749 284.37297732 1115.47101774 286.69512939 1115.02996826 C286.69512939 1114.36996826 286.69512939 1113.70996826 286.69512939 1113.02996826 C288.01512939 1113.02996826 289.33512939 1113.02996826 290.69512939 1113.02996826 C290.69512939 1112.36996826 290.69512939 1111.70996826 290.69512939 1111.02996826 C291.74700439 1110.59684326 292.79887939 1110.16371826 293.88262939 1109.71746826 C297.92452765 1107.98288844 301.55875415 1106.16634351 304.69512939 1103.02996826 C307.99558708 1100.69549819 311.32983309 1098.66433139 314.89044189 1096.75262451 C319.48636204 1094.21168054 323.74833533 1091.34480704 328.00762939 1088.27996826 C328.74618164 1087.75266113 329.48473389 1087.225354 330.2456665 1086.68206787 C352.58517963 1070.67948869 375.41015238 1053.29120592 394.32012939 1033.24481201 C395.69512939 1032.02996826 395.69512939 1032.02996826 397.69512939 1032.02996826 C397.94512695 1031.45327393 398.19512451 1030.87657959 398.45269775 1030.28240967 C399.86660434 1027.71909622 401.48025013 1026.03399018 403.57403564 1023.99090576 C404.3300708 1023.24582764 405.08610596 1022.50074951 405.86505127 1021.73309326 C407.04937744 1020.58067139 407.04937744 1020.58067139 408.25762939 1019.40496826 C409.8236083 1017.87333658 411.38751879 1016.33958631 412.94903564 1014.80340576 C413.64327637 1014.12713135 414.33751709 1013.45085693 415.05279541 1012.75408936 C416.77469435 1011.11508276 416.77469435 1011.11508276 417.69512939 1009.02996826 C418.35512939 1009.02996826 419.01512939 1009.02996826 419.69512939 1009.02996826 C419.69512939 1008.36996826 419.69512939 1007.70996826 419.69512939 1007.02996826 C420.35512939 1007.02996826 421.01512939 1007.02996826 421.69512939 1007.02996826 C421.94391846 1006.46020264 422.19270752 1005.89043701 422.44903564 1005.30340576 C423.88474719 1002.68401981 425.58220396 1000.82775182 427.63262939 998.65496826 C431.87627024 994.02987655 435.76911267 989.22149035 439.61138916 984.26580811 C442.36749725 980.71272423 445.17990604 977.2260038 448.07012939 973.77996826 C456.45663211 963.58342899 464.18438556 952.73624589 471.12872314 941.51043701 C473.82492911 937.24088392 476.76246945 933.13925773 479.69512939 929.02996826 C488.37742491 931.48469868 495.99620791 935.69687491 503.88262939 939.96746826 C505.31837653 940.7384313 506.75441484 941.50885234 508.19073486 942.27874756 C512.36435689 944.51905508 516.53071682 946.77259826 520.69512939 949.02996826 C522.31910645 949.90927002 522.31910645 949.90927002 523.97589111 950.80633545 C531.12553884 954.6827795 538.25728763 958.5915317 545.3850708 962.50799561 C556.77427087 968.7626036 568.215713 974.88852689 579.75518799 980.86175537 C585.70840276 983.95592148 591.55240892 987.15155663 597.29278564 990.62762451 C600.03376806 992.22764514 602.84478297 993.63582204 605.69512939 995.02996826 C605.69512939 999.02996826 605.69512939 999.02996826 604.41387939 1000.40887451 C603.84669189 1000.94383545 603.27950439 1001.47879639 602.69512939 1002.02996826 C601.49104914 1003.98659867 600.33196498 1005.97101725 599.19512939 1007.96746826 C581.77906871 1037.71532741 560.45783537 1065.2275433 538.10284424 1091.37957764 C536.59330151 1093.14935024 535.09129967 1094.92536105 533.58966064 1096.70184326 C524.43166604 1107.50430748 524.43166604 1107.50430748 519.36431885 1112.35980225 C517.72547445 1113.99960546 516.23828904 1115.70128028 514.74200439 1117.47137451 C510.18242596 1122.71455961 505.2727822 1127.60237031 500.3526001 1132.50286865 C498.76053973 1134.08956773 497.17389949 1135.68154568 495.58770752 1137.27410889 C490.12784434 1142.73754148 484.56844462 1148.00965585 478.69512939 1153.02996826 C476.91942719 1154.64964643 475.14804632 1156.27408544 473.38262939 1157.90496826 C467.98034008 1162.82557197 462.39484027 1167.45979592 456.69512939 1172.02996826 C455.53991747 1172.96584039 454.38498306 1173.90205515 453.23028564 1174.83856201 C415.373217 1205.45047548 374.11249165 1233.02741287 330.19512939 1254.15496826 C329.18434326 1254.64126709 328.17355713 1255.12756592 327.13214111 1255.62860107 C326.19386475 1256.07300537 325.25558838 1256.51740967 324.28887939 1256.97528076 C323.45034424 1257.37247314 322.61180908 1257.76966553 321.74786377 1258.17889404 C319.69512939 1259.02996826 319.69512939 1259.02996826 317.69512939 1259.02996826 C317.36512939 1259.68996826 317.03512939 1260.34996826 316.69512939 1261.02996826 C315.70512939 1261.02996826 314.71512939 1261.02996826 313.69512939 1261.02996826 C313.36512939 1261.68996826 313.03512939 1262.34996826 312.69512939 1263.02996826 C310.31254511 1264.13409268 307.94833444 1265.1323844 305.50762939 1266.09246826 C303.96971644 1266.70927558 302.43196445 1267.32648431 300.89434814 1267.94403076 C300.06338623 1268.27564209 299.23242432 1268.60725342 298.37628174 1268.94891357 C295.5007558 1270.10834071 292.63837047 1271.29660509 289.77716064 1272.49090576 C288.29348999 1273.10760132 288.29348999 1273.10760132 286.77984619 1273.73675537 C284.82552165 1274.54940488 282.87252729 1275.36526165 280.92095947 1276.18450928 C280.02401367 1276.55503418 279.12706787 1276.92555908 278.20294189 1277.30731201 C277.00628906 1277.80605835 277.00628906 1277.80605835 275.78546143 1278.31488037 C273.69512939 1279.02996826 273.69512939 1279.02996826 270.69512939 1279.02996826 C270.36512939 1279.68996826 270.03512939 1280.34996826 269.69512939 1281.02996826 C267.12878545 1281.67155425 264.55689734 1282.05195973 261.94512939 1282.46746826 C261.20262939 1282.65309326 260.46012939 1282.83871826 259.69512939 1283.02996826 C259.36512939 1283.68996826 259.03512939 1284.34996826 258.69512939 1285.02996826 C256.94610596 1285.71234131 256.94610596 1285.71234131 254.58575439 1286.35418701 C250.19507271 1287.59675928 245.84052256 1288.91572511 241.49200439 1290.29949951 C240.17864183 1290.71530571 238.86516254 1291.1307434 237.55157471 1291.5458374 C236.88049683 1291.75789825 236.20941895 1291.96995911 235.51800537 1292.18844604 C195.62729329 1304.77454007 155.11031845 1313.67538352 113.64483643 1319.18109131 C110.53356244 1319.5960824 107.68166639 1320.03445593 104.69512939 1321.02996826 C102.3157619 1321.22068092 99.95363613 1321.36152861 97.57012939 1321.46746826 C91.73772436 1321.74400728 85.91870326 1322.07875903 80.09747314 1322.53778076 C13.25255859 1327.58217639 -53.81002353 1323.13216407 -119.30487061 1309.02996826 C-120.03252625 1308.87356873 -120.76018188 1308.71716919 -121.5098877 1308.55603027 C-142.1201653 1304.10433824 -162.30390585 1298.75490048 -182.30487061 1292.02996826 C-183.02154907 1291.78957825 -183.73822754 1291.54918823 -184.47662354 1291.30151367 C-205.10838911 1284.36624681 -225.45604225 1277.00159133 -245.30487061 1268.02996826 C-246.50692139 1267.48727295 -247.70897217 1266.94457764 -248.94744873 1266.38543701 C-281.42697949 1251.66318883 -312.68619415 1234.94351411 -342.30487061 1215.02996826 C-342.96986572 1214.58346924 -343.63486084 1214.13697021 -344.32000732 1213.67694092 C-360.48567773 1202.78008161 -375.98624515 1191.08144221 -391.30487061 1179.02996826 C-392.26393311 1178.27715576 -393.22299561 1177.52434326 -394.21112061 1176.74871826 C-404.94501329 1168.24524484 -415.19519829 1159.34723107 -425.10028076 1149.89300537 C-425.7491626 1149.275625 -426.39804443 1148.65824463 -427.06658936 1148.02215576 C-427.64368652 1147.46898682 -428.22078369 1146.91581787 -428.81536865 1146.34588623 C-430.28788223 1144.93136374 -430.28788223 1144.93136374 -432.30487061 1144.02996826 C-432.30487061 1143.36996826 -432.30487061 1142.70996826 -432.30487061 1142.02996826 C-433.62487061 1141.36996826 -434.94487061 1140.70996826 -436.30487061 1140.02996826 C-436.30487061 1139.36996826 -436.30487061 1138.70996826 -436.30487061 1138.02996826 C-436.92362061 1137.78246826 -437.54237061 1137.53496826 -438.17987061 1137.27996826 C-440.65555747 1135.82368187 -441.25612063 1134.6518432 -442.30487061 1132.02996826 C-442.96487061 1132.02996826 -443.62487061 1132.02996826 -444.30487061 1132.02996826 C-445.64471436 1130.66668701 -445.64471436 1130.66668701 -447.24237061 1128.71746826 C-450.27366348 1125.14193491 -453.4672676 1121.82166201 -456.80487061 1118.52996826 C-461.18926044 1114.19265123 -465.30798441 1109.72435028 -469.30487061 1105.02996826 C-470.28030402 1103.90529009 -471.25698624 1102.78169443 -472.23455811 1101.65887451 C-475.05537086 1098.41884883 -477.86685597 1095.17092493 -480.67352295 1091.91864014 C-481.70607219 1090.72321947 -482.74007062 1089.5290477 -483.77606201 1088.33660889 C-490.85892305 1080.17802746 -497.43853051 1071.7197104 -503.84051514 1063.01776123 C-505.23705691 1061.12202213 -506.64267283 1059.23339387 -508.05096436 1057.34637451 C-524.44862401 1035.29465682 -539.0594682 1012.17375715 -552.89178467 988.44500732 C-554.08792877 986.4007334 -555.29724442 984.36559523 -556.51580811 982.33465576 C-562.33619352 972.47563558 -567.13671961 962.15712081 -571.99383545 951.79901123 C-573.13188442 949.39533313 -574.29554488 947.00832613 -575.48065186 944.62762451 C-611.02890095 872.70267137 -629.67032063 793.12880803 -637.49237061 713.65496826 C-637.56423584 712.92680908 -637.63610107 712.1986499 -637.71014404 711.44842529 C-639.25469349 694.53749239 -639.54602554 677.62654247 -639.55487061 660.65496826 C-639.55588272 658.89251266 -639.55588272 658.89251266 -639.55691528 657.0944519 C-639.48665039 579.26393784 -625.96251626 503.03060777 -599.02960205 429.9977417 C-598.54385515 428.67885336 -598.06023371 427.35918039 -597.57867432 426.03875732 C-593.87217517 415.87703562 -589.81285501 405.91819926 -585.42987061 396.02996826 C-585.11150238 395.30951324 -584.79313416 394.58905823 -584.46511841 393.84677124 C-572.97258238 367.90767051 -560.70257612 341.57324315 -544.66033936 318.10125732 C-543.30050854 316.0233026 -542.1010943 313.90635988 -540.92987061 311.71746826 C-538.11763815 306.56170875 -534.8757599 301.7368491 -531.5680542 296.88787842 C-530.1550541 294.8096158 -528.75556323 292.72253689 -527.35565186 290.63543701 C-521.39896324 281.79759841 -515.24819971 273.18339477 -508.70648193 264.76849365 C-505.42996516 260.54530424 -502.38794457 256.25203572 -499.50408936 251.74871826 C-497.73526989 249.21360241 -495.51433846 247.17972077 -493.30487061 245.02996826 C-492.80987061 244.20496826 -492.31487061 243.37996826 -491.80487061 242.52996826 C-490.01063931 239.53958276 -487.77277481 237.4942906 -485.30487061 235.02996826 C-483.76003929 233.21681043 -482.2389644 231.3831418 -480.74237061 229.52996826 C-479.99858154 228.61215576 -479.25479248 227.69434326 -478.48846436 226.74871826 C-477.01632124 224.91578157 -475.57130985 223.06076276 -474.15252686 221.18621826 C-473.54280029 220.47465576 -472.93307373 219.76309326 -472.30487061 219.02996826 C-471.64487061 219.02996826 -470.98487061 219.02996826 -470.30487061 219.02996826 C-470.04834717 218.44473389 -469.79182373 217.85949951 -469.52752686 217.25653076 C-468.19924899 214.83762218 -466.73962259 213.29797954 -464.74237061 211.40496826 C-462.16471671 208.98474867 -462.16471671 208.98474867 -460.30487061 206.02996826 C-459.64487061 206.02996826 -458.98487061 206.02996826 -458.30487061 206.02996826 C-458.30487061 205.36996826 -458.30487061 204.70996826 -458.30487061 204.02996826 C-457.64487061 204.02996826 -456.98487061 204.02996826 -456.30487061 204.02996826 C-456.30487061 203.36996826 -456.30487061 202.70996826 -456.30487061 202.02996826 C-455.64487061 202.02996826 -454.98487061 202.02996826 -454.30487061 202.02996826 C-454.01612061 201.43184326 -453.72737061 200.83371826 -453.42987061 200.21746826 C-452.30487061 198.02996826 -452.30487061 198.02996826 -450.30487061 195.02996826 C-449.64487061 195.02996826 -448.98487061 195.02996826 -448.30487061 195.02996826 C-448.30487061 194.36996826 -448.30487061 193.70996826 -448.30487061 193.02996826 C-447.68612061 192.94746826 -447.06737061 192.86496826 -446.42987061 192.77996826 C-444.17020731 192.25090848 -444.17020731 192.25090848 -443.36737061 190.27996826 C-443.01674561 189.53746826 -442.66612061 188.79496826 -442.30487061 188.02996826 C-440.68262521 186.32003393 -439.01073636 184.65649142 -437.30487061 183.02996826 C-435.97455811 181.63778076 -435.97455811 181.63778076 -434.61737061 180.21746826 C-432.30487061 178.02996826 -432.30487061 178.02996826 -430.30487061 178.02996826 C-430.30487061 177.36996826 -430.30487061 176.70996826 -430.30487061 176.02996826 C-429.64487061 176.02996826 -428.98487061 176.02996826 -428.30487061 176.02996826 C-428.30487061 175.36996826 -428.30487061 174.70996826 -428.30487061 174.02996826 C-427.39737061 173.43184326 -426.48987061 172.83371826 -425.55487061 172.21746826 C-422.30140982 170.27043078 -422.30140982 170.27043078 -420.49237061 167.71746826 C-417.83336021 164.45068406 -414.79055704 162.18624719 -411.42596436 159.67840576 C-409.30288198 158.10875956 -409.30288198 158.10875956 -407.65252686 156.31903076 C-406.30487061 155.02996826 -406.30487061 155.02996826 -404.30487061 155.02996826 C-404.30487061 154.36996826 -404.30487061 153.70996826 -404.30487061 153.02996826 C-402.65252686 151.54949951 -402.65252686 151.54949951 -400.36737061 149.84246826 C-399.55268311 149.22887451 -398.73799561 148.61528076 -397.89862061 147.98309326 C-397.04268311 147.33856201 -396.18674561 146.69403076 -395.30487061 146.02996826 C-392.91755755 144.12895972 -390.53266321 142.22511048 -388.15252686 140.31512451 C-386.30487061 139.02996826 -386.30487061 139.02996826 -384.30487061 139.02996826 C-384.30487061 138.36996826 -384.30487061 137.70996826 -384.30487061 137.02996826 C-378.8931059 133.02996826 -378.8931059 133.02996826 -376.30487061 133.02996826 C-376.30487061 132.36996826 -376.30487061 131.70996826 -376.30487061 131.02996826 C-375.64487061 131.02996826 -374.98487061 131.02996826 -374.30487061 131.02996826 C-374.30487061 130.36996826 -374.30487061 129.70996826 -374.30487061 129.02996826 C-371.30487061 127.02996826 -371.30487061 127.02996826 -368.30487061 127.02996826 C-368.30487061 126.36996826 -368.30487061 125.70996826 -368.30487061 125.02996826 C-367.64487061 125.02996826 -366.98487061 125.02996826 -366.30487061 125.02996826 C-366.30487061 124.36996826 -366.30487061 123.70996826 -366.30487061 123.02996826 C-365.31487061 123.02996826 -364.32487061 123.02996826 -363.30487061 123.02996826 C-363.30487061 122.36996826 -363.30487061 121.70996826 -363.30487061 121.02996826 C-362.31487061 121.02996826 -361.32487061 121.02996826 -360.30487061 121.02996826 C-360.30487061 120.36996826 -360.30487061 119.70996826 -360.30487061 119.02996826 C-356.6059925 115.45438609 -352.30876982 113.43858037 -347.70721436 111.27606201 C-345.25942039 110.09199976 -345.25942039 110.09199976 -343.12127686 108.37762451 C-341.30487061 107.02996826 -341.30487061 107.02996826 -339.30487061 107.02996826 C-338.97487061 106.36996826 -338.64487061 105.70996826 -338.30487061 105.02996826 C-337.64487061 104.36996826 -336.98487061 103.70996826 -336.30487061 103.02996826 C-335.31487061 103.02996826 -334.32487061 103.02996826 -333.30487061 103.02996826 C-333.30487061 102.36996826 -333.30487061 101.70996826 -333.30487061 101.02996826 C-332.31487061 101.02996826 -331.32487061 101.02996826 -330.30487061 101.02996826 C-330.30487061 100.36996826 -330.30487061 99.70996826 -330.30487061 99.02996826 C-326.83987061 98.03996826 -326.83987061 98.03996826 -323.30487061 97.02996826 C-323.30487061 96.36996826 -323.30487061 95.70996826 -323.30487061 95.02996826 C-320.00937595 93.30732333 -316.97368215 91.73550894 -313.30487061 91.02996826 C-313.30487061 90.36996826 -313.30487061 89.70996826 -313.30487061 89.02996826 C-312.31487061 89.02996826 -311.32487061 89.02996826 -310.30487061 89.02996826 C-309.97487061 88.36996826 -309.64487061 87.70996826 -309.30487061 87.02996826 C-308.64487061 86.36996826 -307.98487061 85.70996826 -307.30487061 85.02996826 C-306.31487061 85.02996826 -305.32487061 85.02996826 -304.30487061 85.02996826 C-304.30487061 84.36996826 -304.30487061 83.70996826 -304.30487061 83.02996826 C-302.98487061 83.02996826 -301.66487061 83.02996826 -300.30487061 83.02996826 C-300.30487061 82.36996826 -300.30487061 81.70996826 -300.30487061 81.02996826 C-297.21677365 79.26534143 -296.07174925 79.02996826 -292.30487061 79.02996826 C-292.30487061 78.36996826 -292.30487061 77.70996826 -292.30487061 77.02996826 C-290.98487061 77.02996826 -289.66487061 77.02996826 -288.30487061 77.02996826 C-288.30487061 76.36996826 -288.30487061 75.70996826 -288.30487061 75.02996826 C-287.31487061 75.02996826 -286.32487061 75.02996826 -285.30487061 75.02996826 C-284.97487061 74.36996826 -284.64487061 73.70996826 -284.30487061 73.02996826 C-283.31487061 73.02996826 -282.32487061 73.02996826 -281.30487061 73.02996826 C-281.30487061 72.36996826 -281.30487061 71.70996826 -281.30487061 71.02996826 C-279.98487061 71.02996826 -278.66487061 71.02996826 -277.30487061 71.02996826 C-277.30487061 70.36996826 -277.30487061 69.70996826 -277.30487061 69.02996826 C-274.21677365 67.26534143 -273.07174925 67.02996826 -269.30487061 67.02996826 C-269.30487061 66.36996826 -269.30487061 65.70996826 -269.30487061 65.02996826 C-267.98487061 65.02996826 -266.66487061 65.02996826 -265.30487061 65.02996826 C-265.30487061 64.36996826 -265.30487061 63.70996826 -265.30487061 63.02996826 C-264.72479248 62.84821045 -264.14471436 62.66645264 -263.54705811 62.47918701 C-259.85189072 61.290148 -256.41102708 60.0830465 -252.92987061 58.34246826 C-250.30487061 57.02996826 -250.30487061 57.02996826 -247.30487061 57.02996826 C-246.97487061 56.36996826 -246.64487061 55.70996826 -246.30487061 55.02996826 C-245.31487061 55.02996826 -244.32487061 55.02996826 -243.30487061 55.02996826 C-243.30487061 54.36996826 -243.30487061 53.70996826 -243.30487061 53.02996826 C-233.89484783 49.77028717 -233.89484783 49.77028717 -229.30487061 49.02996826 C-229.30487061 48.36996826 -229.30487061 47.70996826 -229.30487061 47.02996826 C-228.01395701 46.6937303 -226.72210963 46.36107577 -225.42987061 46.02996826 C-224.71057373 45.84434326 -223.99127686 45.65871826 -223.25018311 45.46746826 C-221.30487061 45.02996826 -221.30487061 45.02996826 -219.30487061 45.02996826 C-218.97487061 44.36996826 -218.64487061 43.70996826 -218.30487061 43.02996826 C-216.65487061 43.02996826 -215.00487061 43.02996826 -213.30487061 43.02996826 C-212.97487061 42.36996826 -212.64487061 41.70996826 -212.30487061 41.02996826 C-210.18749328 40.24063304 -208.03432129 39.54579705 -205.86737061 38.90496826 C-204.69303467 38.55176514 -203.51869873 38.19856201 -202.30877686 37.83465576 C-199.30487061 37.02996826 -199.30487061 37.02996826 -197.30487061 37.02996826 C-197.30487061 36.36996826 -197.30487061 35.70996826 -197.30487061 35.02996826 C-195.32487061 35.02996826 -193.34487061 35.02996826 -191.30487061 35.02996826 C-190.97487061 34.36996826 -190.64487061 33.70996826 -190.30487061 33.02996826 C-188.54832117 32.54990374 -186.78622271 32.08709764 -185.01092529 31.68182373 C-179.62423744 30.38423653 -174.3238928 28.75138614 -169.00604248 27.19866943 C-166.94202232 26.59601632 -164.87741569 25.99540988 -162.81268311 25.39520264 C-161.46891573 25.00398627 -160.12516554 24.61271088 -158.78143311 24.22137451 C-158.12114105 24.02940994 -157.460849 23.83744537 -156.7805481 23.6396637 C-153.30187634 22.62514463 -149.83930672 21.57081255 -146.38299561 20.48309326 C-107.35884652 8.75807724 -65.76700437 4.08594104 -25.30487061 1.02996826 C-24.18467529 0.94376221 -23.06447998 0.85755615 -21.91033936 0.76873779 C-14.60651341 0.24216528 -7.32052126 0.09518248 0 0 Z M-510.30487061 519.02996826 C-509.92052314 536.90301554 -509.92052314 536.90301554 -507.80780029 554.59515381 C-507.30981108 557.99622672 -507.14617519 561.25942793 -507.05273438 564.68917847 C-506.5206333 584.08907089 -504.69677176 603.4238532 -503.08612061 622.75653076 C-502.73418774 626.98238032 -502.38710153 631.20857644 -502.04510498 635.4352417 C-500.1948983 658.29951764 -498.18601001 681.13680905 -495.72283936 703.94403076 C-495.62298485 704.87793766 -495.52313034 705.81184456 -495.42024994 706.77405167 C-484.98661011 803.75354138 -449.63935006 895.46546704 -368.47674561 1004.60809326 C-366.19212961 1007.15568664 -364.06181616 1009.79119618 -361.92987061 1012.46746826 C-357.87511632 1017.48628999 -353.44816184 1021.98814763 -348.84393311 1026.49090576 C-346.78933988 1028.54549899 -344.90706191 1030.61034027 -343.05487061 1032.84246826 C-337.8915105 1038.91478173 -331.78828041 1044.14088081 -325.92059326 1049.51629639 C-324.56458274 1050.78665982 -323.26166323 1052.11336621 -321.97283936 1053.45184326 C-320.44543974 1055.25905914 -320.44543974 1055.25905914 -318.30487061 1055.02996826 C-318.30487061 1055.68996826 -318.30487061 1056.34996826 -318.30487061 1057.02996826 C-316.77649791 1058.42596222 -315.17836961 1059.74584475 -313.55487061 1061.02996826 C-312.03699951 1062.24233154 -312.03699951 1062.24233154 -310.48846436 1063.47918701 C-309.69351563 1064.11219727 -309.69351563 1064.11219727 -308.88250732 1064.75799561 C-306.42280944 1066.74113179 -304.02573497 1068.79750593 -301.61737061 1070.84246826 C-294.39645862 1076.86454157 -286.87998079 1082.46371773 -279.30487061 1088.02996826 C-278.54239014 1088.59216064 -277.77990967 1089.15435303 -276.99432373 1089.73358154 C-274.64384307 1091.46339144 -272.2879454 1093.18552841 -269.92987061 1094.90496826 C-269.21750244 1095.42808594 -268.50513428 1095.95120361 -267.7711792 1096.49017334 C-263.25944075 1099.75860543 -258.63029627 1102.70045155 -253.83172607 1105.52947998 C-251.36461124 1106.99449329 -248.93340469 1108.50487467 -246.50799561 1110.03778076 C-228.14731721 1121.61467555 -209.29735944 1131.83823361 -189.60321045 1140.9586792 C-187.59491038 1141.89477658 -185.59800318 1142.84959992 -183.60565186 1143.81903076 C-167.00833939 1151.80542285 -149.79067354 1158.53168389 -132.42987061 1164.65496826 C-122.05986682 1168.31749637 -111.95139689 1172.39152945 -101.90838623 1176.87078857 C-99.23885263 1178.05936186 -96.56125961 1179.22840653 -93.88299561 1180.39715576 C-75.73713545 1188.39164346 -58.59405747 1197.89715253 -41.67987061 1208.21746826 C-40.62573975 1208.85829346 -39.57160889 1209.49911865 -38.48553467 1210.15936279 C-31.93567156 1214.20936493 -25.82071574 1218.56570724 -19.78778076 1223.33587646 C-17.3928152 1225.31177276 -17.3928152 1225.31177276 -14.30487061 1225.02996826 C-14.27064734 1173.68571776 -14.23880437 1122.3414664 -14.22018433 1070.99720764 C-14.21990821 1070.23777328 -14.2196321 1069.47833891 -14.21934762 1068.69589139 C-14.21336235 1052.19290125 -14.20782191 1035.689911 -14.20273995 1019.18692056 C-14.20024519 1011.0943199 -14.19765209 1003.00171927 -14.19500732 994.90911865 C-14.19461505 993.70112675 -14.19461505 993.70112675 -14.19421485 992.46873097 C-14.18568616 966.3472204 -14.17065908 940.22571847 -14.15227616 914.10421313 C-14.13342576 887.26979437 -14.12110315 860.43538039 -14.11704063 833.60095512 C-14.11646428 829.81420396 -14.11581301 826.02745282 -14.11511612 822.24070168 C-14.11498127 821.49538584 -14.11484643 820.75007 -14.1147075 819.98216883 C-14.11234044 807.965591 -14.10305458 795.94902792 -14.09120654 783.93245611 C-14.07945338 771.863286 -14.07492928 759.79413056 -14.07786785 747.72495493 C-14.0792588 741.18093326 -14.07712274 734.63694658 -14.06645966 728.09293175 C-14.05678205 722.11033433 -14.05619969 716.12780983 -14.06307282 710.14520917 C-14.06392325 707.97289414 -14.06133985 705.80057469 -14.05510424 703.62826844 C-14.04715847 700.69104607 -14.05135489 697.75409214 -14.05877495 694.8168745 C-14.05352092 693.96001335 -14.04826689 693.1031522 -14.04285365 692.22032556 C-14.06542912 688.30577824 -14.08343464 686.36212221 -16.30487061 683.02996826 C-16.96487061 683.02996826 -17.62487061 683.02996826 -18.30487061 683.02996826 C-18.30487061 682.36996826 -18.30487061 681.70996826 -18.30487061 681.02996826 C-19.78533853 679.4932031 -19.78533853 679.4932031 -21.74237061 677.90496826 C-24.63164979 675.45710673 -27.45833812 672.97149821 -30.24237061 670.40496826 C-36.55522682 664.78630929 -43.35142753 659.77646449 -50.09832764 654.69696045 C-52.19511714 653.11288447 -54.28069515 651.51522437 -56.36346436 649.91278076 C-64.97574795 643.31783677 -73.81705196 637.23899008 -83.00506592 631.47479248 C-85.41118035 629.96318046 -87.80703919 628.43603765 -90.20330811 626.90887451 C-103.24472931 618.65537894 -116.62283353 611.16551615 -130.30487061 604.02996826 C-131.38091553 603.46664795 -132.45696045 602.90332764 -133.56561279 602.32293701 C-212.89635257 561.0383347 -300.60935715 539.20130796 -510.30487061 519.02996826 Z " fill="#5DAAC7" transform="translate(648.3048706054688,24.97003173828125)"/>
<path d="M0 0 C0.66 0 1.32 0 2 0 C1.67 0.66 1.34 1.32 1 2 C0.67 1.34 0.34 0.68 0 0 Z " fill="#5DAAC7" transform="translate(576,609)"/>
<path d="" fill="#5DAAC7" transform="translate(0,0)"/>
<path d="" fill="#5DAAC7" transform="translate(0,0)"/>
<path d="" fill="#5DAAC7" transform="translate(0,0)"/>
<path d="" fill="#5DAAC7" transform="translate(0,0)"/>
<path d="" fill="#5DAAC7" transform="translate(0,0)"/>
<path d="" fill="#5DAAC7" transform="translate(0,0)"/>
<path d="" fill="#5DAAC7" transform="translate(0,0)"/>
<path d="" fill="#5DAAC7" transform="translate(0,0)"/>
<path d="" fill="#5DAAC7" transform="translate(0,0)"/>
<path d="" fill="#5DAAC7" transform="translate(0,0)"/>
<path d="" fill="#5DAAC7" transform="translate(0,0)"/>
<path d="" fill="#5DAAC7" transform="translate(0,0)"/>
<path d="" fill="#5DAAC7" transform="translate(0,0)"/>
<path d="" fill="#5DAAC7" transform="translate(0,0)"/>
<path d="" fill="#5DAAC7" transform="translate(0,0)"/>
<path d="" fill="#5DAAC7" transform="translate(0,0)"/>
<path d="" fill="#5DAAC7" transform="translate(0,0)"/>
<path d="" fill="#5DAAC7" transform="translate(0,0)"/>
<path d="" fill="#5DAAC7" transform="translate(0,0)"/>
<path d="" fill="#5DAAC7" transform="translate(0,0)"/>
<path d="" fill="#5DAAC7" transform="translate(0,0)"/>
</svg>
