<?xml version="1.0" encoding="utf-8"?>
<svg xmlns="http://www.w3.org/2000/svg" fill="none" height="50" viewBox="0 0 72 50" width="72">
<path clip-rule="evenodd" d="M68.7971 1.5405C69.1075 0.682025 70.0518 0.239579 70.9103 0.549951C71.7688 0.860324 72.2112 1.80465 71.9009 2.66313L55.2662 48.453C55.0322 49.0966 54.427 49.529 53.7467 49.5423C53.6991 49.5469 53.6509 49.5493 53.602 49.5493H1.47262C0.659314 49.5493 0 48.89 0 48.0767C0 47.2634 0.659314 46.6041 1.47262 46.6041H51.4903L35.5146 2.66313C35.2042 1.81125 35.6467 0.860324 36.5052 0.549951C37.357 0.239579 38.308 0.682025 38.6183 1.5405L50.4323 34.0306H56.9964L68.7971 1.5405ZM28.9109 34.7041H16.4233C15.8488 34.7041 15.3469 35.0739 15.162 35.6154L13.5772 40.4229C13.3989 40.9644 12.8904 41.3342 12.3159 41.3342H3.30845C2.39054 41.3342 1.74998 40.4229 2.06035 39.5578L15.9017 1.59329C16.0932 1.0716 16.5884 0.721604 17.1498 0.721604H28.31C28.8647 0.721604 29.3665 1.0716 29.5581 1.59329L43.3399 39.5512C43.6569 40.4163 43.0163 41.3276 42.0918 41.3276H33.0184C32.4439 41.3276 31.942 40.9578 31.7571 40.4163L30.1722 35.6088C29.9939 35.0673 29.4854 34.6975 28.9109 34.6975V34.7041ZM26.4675 24.3231L23.9383 16.7289C23.5355 15.5204 21.8185 15.5204 21.4223 16.7289L18.9261 24.3231C18.6422 25.1816 19.2827 26.0599 20.1874 26.0599H25.2194C26.1241 26.0599 26.7647 25.175 26.4741 24.3165L26.4675 24.3231Z" fill="#62C36D" fill-rule="evenodd"/>
</svg>