<?xml version="1.0" encoding="utf-8"?>
<svg xmlns="http://www.w3.org/2000/svg" fill="none" height="38" viewBox="0 0 74 38" width="74">
<path clip-rule="evenodd" d="M57.4804 1.65359C57.439 1.66909 57.3925 1.66909 57.3512 1.66909H57.346C57.0463 1.66909 56.7776 1.45723 56.7156 1.15236C56.6433 0.806159 56.8655 0.465122 57.2169 0.39278C58.1728 0.196425 59.2166 0.082746 60.3172 0.0517426H60.3379C60.6892 0.0517426 60.9734 0.325606 60.9838 0.676978C60.9941 1.03352 60.7151 1.32805 60.3585 1.33838C59.3354 1.36422 58.3692 1.47273 57.4804 1.65359ZM35.8813 28.146H44.5674L44.5726 28.1563C45.4045 28.1563 46.0814 28.8332 46.0814 29.6652V35.6747C46.0814 36.5066 45.4045 37.1835 44.5726 37.1835H21.4906C20.6586 37.1835 19.9817 36.5066 19.9817 35.6747V29.8047C19.9817 29.3448 20.1987 28.9004 20.5604 28.6162C23.5316 26.2806 26.0119 24.2344 27.9341 22.5292C29.8976 20.7827 31.5667 18.9638 32.8946 17.1139C34.171 15.3364 34.8169 13.6364 34.8169 12.0655C34.8169 11.1871 34.6257 10.505 34.2536 10.04C33.9074 9.61111 33.4114 9.40442 32.688 9.40442C31.9645 9.40442 31.4375 9.68861 31.0396 10.3035C30.6831 10.8461 30.4764 11.6315 30.4247 12.6339C30.3834 13.4452 29.722 14.0756 28.921 14.0756H21.4389C21.0203 14.0756 20.6173 13.8947 20.3331 13.5899C20.0489 13.2798 19.9042 12.8613 19.9352 12.4428C20.1316 9.8798 20.7826 7.68373 21.8729 5.91653C23.1027 3.92198 24.7356 2.42864 26.7198 1.48821C28.6782 0.558104 30.8846 0.0878855 33.2719 0.0878855C37.4211 0.0878855 40.568 1.15234 42.6297 3.24507C44.6915 5.34297 45.7352 8.07644 45.7352 11.3835C45.7352 14.8817 44.5519 18.2042 42.2215 21.2581C40.4233 23.6092 38.2479 25.8001 35.7521 27.7636C35.6488 27.8463 35.6591 27.9393 35.6798 28.0065C35.7005 28.0685 35.7573 28.146 35.8813 28.146ZM44.5674 35.8813C44.6863 35.8813 44.7845 35.7832 44.7845 35.6643H44.7896V29.6548C44.7896 29.536 44.6915 29.4378 44.5726 29.4378H35.8865C35.2354 29.4378 34.6773 29.0399 34.4655 28.425C34.2485 27.8101 34.4448 27.1487 34.9564 26.7457C37.3643 24.8493 39.4674 22.7411 41.1984 20.4726C43.3583 17.6513 44.4486 14.5923 44.4486 11.3835C44.4486 8.43298 43.5288 5.99921 41.7151 4.1545C39.9066 2.31497 37.0646 1.37969 33.277 1.37969C31.0809 1.37969 29.0606 1.80858 27.2779 2.656C25.521 3.48793 24.0742 4.81591 22.9787 6.59344C21.9969 8.19011 21.4079 10.1898 21.227 12.5461C21.2167 12.6339 21.258 12.6908 21.2839 12.7166C21.3045 12.7425 21.3562 12.7838 21.4389 12.7838H28.921C29.0347 12.7838 29.1277 12.6856 29.1329 12.5668C29.1949 11.3318 29.4739 10.3345 29.9545 9.5956C30.5849 8.62416 31.577 8.11261 32.6828 8.11261C33.7886 8.11261 34.6515 8.48982 35.2509 9.22873C35.8141 9.92631 36.0983 10.8822 36.0983 12.0655C36.0983 13.9102 35.3698 15.8635 33.9333 17.8632C32.5536 19.7906 30.8174 21.6869 28.7815 23.4903C26.8438 25.2058 24.3429 27.2727 21.351 29.6238C21.2994 29.6652 21.2684 29.7323 21.2684 29.7943V35.6643C21.2684 35.7832 21.3665 35.8813 21.4854 35.8813H44.5674ZM1.50883 0.816484H14.7628H14.768C15.5999 0.816484 16.2768 1.49339 16.2768 2.32532V36.1604C16.2768 36.9923 15.5999 37.6692 14.768 37.6692H6.52105C5.68913 37.6692 5.01222 36.9923 5.01222 36.1604V11.2801C5.01222 11.1613 4.91404 11.0631 4.7952 11.0631H1.50883C0.676908 11.0631 0 10.3862 0 9.55428V2.32532C0 1.49339 0.676908 0.816484 1.50883 0.816484ZM51.414 4.86246C51.5897 4.86246 51.7654 4.79012 51.8894 4.6506C52.0599 4.45942 52.2459 4.27856 52.4371 4.10288C53.1192 3.47764 53.9046 2.95058 54.7727 2.54237C55.0931 2.38735 55.2326 2.00498 55.0776 1.68461C54.9226 1.36424 54.5402 1.22472 54.2198 1.37974C53.238 1.84479 52.3441 2.44419 51.569 3.15727C51.352 3.35879 51.1401 3.57065 50.9386 3.78768C50.6958 4.0512 50.7164 4.45942 50.98 4.70228C51.104 4.81596 51.259 4.8728 51.414 4.8728V4.86246ZM60.7151 23.3715C61.5057 23.4903 62.1206 23.7074 62.5391 24.0122C62.6993 24.1259 62.8337 24.2603 62.9525 24.4101C63.0817 24.5703 63.2677 24.6581 63.4589 24.6581C63.5984 24.6581 63.7379 24.6116 63.8568 24.5186C64.1358 24.2964 64.1875 23.8934 63.9653 23.6144C63.7793 23.3767 63.5571 23.1596 63.3039 22.9736C62.7148 22.5396 61.9087 22.245 60.9063 22.0952C60.5549 22.0435 60.2242 22.2864 60.1725 22.6378C60.1208 22.9891 60.3637 23.3198 60.7151 23.3715ZM61.8467 13.6984C62.4099 13.4142 62.7096 12.8458 62.7716 11.9622L62.7768 11.9674C62.8026 11.6109 63.123 11.337 63.464 11.368C63.8206 11.3938 64.0893 11.6987 64.0634 12.0552C63.9704 13.4091 63.4227 14.3547 62.4358 14.8559C62.3428 14.9024 62.2497 14.9489 62.1516 14.9902C62.0689 15.0264 61.981 15.0419 61.8932 15.0419C61.64 15.0419 61.4075 14.8972 61.299 14.6544C61.1543 14.3237 61.3041 13.9465 61.6297 13.8018C61.702 13.7708 61.7744 13.7346 61.8467 13.6984ZM54.9226 12.0681C54.924 12.4235 55.2128 12.7115 55.5685 12.7115H57.129C57.8576 12.7115 58.4828 12.1844 58.612 11.4558C58.6223 11.3835 58.6378 11.3163 58.6533 11.2492C58.7309 10.9029 58.5138 10.5567 58.1625 10.4792C57.8162 10.4017 57.47 10.6188 57.3925 10.9701C57.3719 11.058 57.3564 11.1406 57.3409 11.2285C57.3202 11.3422 57.2323 11.4248 57.129 11.4248H55.5685C55.2128 11.4248 54.924 11.7128 54.9226 12.0681ZM66.0528 2.12378C65.2054 1.81891 64.265 1.59672 63.2625 1.46754C62.9111 1.42103 62.6579 1.0955 62.7044 0.744125C62.751 0.392753 63.0713 0.134391 63.4279 0.186063C64.5233 0.325579 65.5568 0.568439 66.492 0.909477C66.8279 1.02832 67.0036 1.40036 66.8796 1.73623C66.7866 1.9946 66.5385 2.15995 66.275 2.15995C66.1975 2.15995 66.1252 2.14961 66.0528 2.12378ZM71.6127 16.1425C72.145 15.4915 72.5635 14.7267 72.8477 13.8793C72.9614 13.5434 72.7805 13.1765 72.4447 13.0577C72.1088 12.944 71.7419 13.1249 71.6231 13.4607C71.3854 14.1635 71.0443 14.7887 70.6103 15.3261C70.4811 15.4863 70.3468 15.6413 70.2124 15.786C69.9696 16.0495 69.9851 16.4577 70.2486 16.7006C70.3726 16.8143 70.5276 16.8711 70.6878 16.8711C70.8635 16.8711 71.034 16.7988 71.1632 16.6644C71.3182 16.4991 71.4681 16.3234 71.6127 16.1425ZM72.0726 10.6962V10.4585C72.0726 9.55944 71.959 8.70168 71.7316 7.90592C71.6334 7.56489 71.8349 7.20835 72.176 7.11017C72.517 7.01199 72.8736 7.21351 72.9717 7.55455C73.2353 8.46915 73.3644 9.44576 73.3644 10.4585V10.7221C73.3541 11.0734 73.0699 11.3525 72.7185 11.3525H72.703C72.3465 11.3473 72.0675 11.0528 72.0726 10.6962ZM71.096 20.7879C70.8222 21.0152 70.786 21.4235 71.0133 21.6973C71.5921 22.3949 72.0313 23.2062 72.3103 24.1104C72.3982 24.3895 72.6514 24.5651 72.9252 24.5651C72.9872 24.5651 73.0544 24.5548 73.1164 24.5341C73.4574 24.4308 73.6486 24.0691 73.5401 23.7281C73.2094 22.6584 72.6927 21.6973 72.0003 20.8706C71.7729 20.5967 71.3647 20.5605 71.0909 20.7879H71.096ZM70.5328 5.3998C70.0057 4.65572 69.3443 3.99431 68.5589 3.43625C68.2695 3.22956 68.2023 2.82652 68.409 2.53715C68.6157 2.24779 69.0188 2.18061 69.3081 2.3873C70.2124 3.03321 70.9772 3.79279 71.5869 4.65572C71.7936 4.94509 71.7212 5.34813 71.4319 5.55482C71.3182 5.6375 71.189 5.67367 71.0598 5.67367C70.8583 5.67367 70.6568 5.57549 70.5328 5.3998ZM59.9245 9.37341C60.1466 9.2959 60.4102 9.25456 60.7047 9.25456C61.3144 9.25456 61.7795 9.40441 62.1309 9.71445C62.2549 9.82296 62.4047 9.87463 62.5546 9.87463C62.7354 9.87463 62.9111 9.80229 63.0403 9.65244C63.2728 9.38374 63.247 8.97553 62.9783 8.74301C62.3892 8.22628 61.6193 7.96275 60.6995 7.96275C60.2552 7.96275 59.847 8.02993 59.4852 8.15394C59.1494 8.27279 58.9737 8.63966 59.0925 8.9807C59.2114 9.32174 59.5783 9.49225 59.9193 9.37341H59.9245ZM48.8924 12.0656C48.8924 11.709 49.1818 11.4197 49.5383 11.4197H52.5508C52.9073 11.4197 53.1967 11.709 53.1967 12.0656C53.1967 12.4221 52.9073 12.7115 52.5508 12.7115H49.5383C49.1818 12.7115 48.8924 12.4221 48.8924 12.0656ZM58.2089 14.241C57.377 14.241 56.7001 14.9179 56.7001 15.7498V16.6799C56.7001 17.0364 56.9895 17.3258 57.346 17.3258C57.7025 17.3258 57.9919 17.0364 57.9919 16.6799V15.7498C57.9919 15.6309 58.0901 15.5328 58.2089 15.5328H58.9427C59.2992 15.5328 59.5886 15.2434 59.5886 14.8869C59.5886 14.5303 59.2992 14.241 58.9427 14.241H58.2089ZM71.2304 32.2591C71.4268 31.9646 71.8246 31.8767 72.1243 32.0731L72.1295 32.0679C72.424 32.2643 72.5119 32.6621 72.3155 32.9618C71.7316 33.8558 70.9979 34.6515 70.1401 35.3233C70.0213 35.4163 69.8818 35.4628 69.7422 35.4628C69.551 35.4628 69.365 35.3749 69.2358 35.2148C69.0137 34.9357 69.0653 34.5327 69.3444 34.3105C70.0884 33.7266 70.724 33.0342 71.2304 32.2591ZM59.1752 29.7323C59.2527 29.7634 59.3354 29.7789 59.4181 29.7789C59.6713 29.7789 59.9141 29.629 60.0175 29.3758C60.1518 29.0451 59.9916 28.6679 59.6661 28.5336C59.3199 28.394 59.0409 28.1977 58.8135 27.929C58.5345 27.6086 58.3485 27.2211 58.2399 26.7354C58.1624 26.3891 57.8162 26.167 57.47 26.2496C57.1238 26.3271 56.9068 26.6733 56.9843 27.0195C57.1393 27.7016 57.4287 28.2907 57.8421 28.7712C58.2038 29.1898 58.6533 29.5102 59.1856 29.7272L59.1752 29.7323ZM64.1358 36.4653C65.1279 36.3103 66.0528 36.0571 66.8951 35.716V35.7108C67.2258 35.5765 67.603 35.7367 67.7374 36.0674C67.8717 36.3981 67.7115 36.7753 67.3808 36.9096C66.4507 37.2869 65.4276 37.5659 64.3373 37.7364C64.3011 37.7467 64.2701 37.7467 64.234 37.7467C63.9239 37.7467 63.6501 37.5246 63.5984 37.2042C63.5416 36.8528 63.7844 36.5221 64.1358 36.4653ZM61.2421 36.6565C60.219 36.6461 59.2424 36.5686 58.3329 36.4291C57.9816 36.3774 57.6509 36.6151 57.594 36.9665C57.5372 37.3179 57.78 37.6486 58.1314 37.7054C59.0977 37.8553 60.1415 37.9379 61.2266 37.9483H61.2318C61.5831 37.9483 61.8725 37.6641 61.8777 37.3075C61.8777 36.951 61.5935 36.6565 61.2369 36.6565H61.2421ZM64.1564 26.2393C64.513 26.291 64.7558 26.6217 64.7042 26.9731C64.5905 27.7688 64.2805 28.4457 63.7844 28.9831C63.4537 29.3397 63.061 29.6135 62.6114 29.7944C62.5288 29.8254 62.4513 29.8409 62.3686 29.8409C62.1102 29.8409 61.8725 29.691 61.7692 29.4378C61.6348 29.1071 61.795 28.7299 62.1257 28.5956C62.3996 28.4871 62.6269 28.3269 62.8285 28.1099C63.1488 27.7637 63.3452 27.3296 63.4227 26.7871C63.4744 26.4305 63.8051 26.1877 64.1564 26.2393ZM69.7577 19.7027C69.9334 19.3927 69.83 19 69.52 18.8243C69.2926 18.6951 69.0549 18.5711 68.8121 18.4523C68.9671 18.2611 69.0033 17.9976 68.8896 17.7599C68.7346 17.4395 68.347 17.3051 68.0267 17.4602C67.7786 17.579 67.5203 17.6875 67.2619 17.7702C66.9984 17.858 66.8227 18.1061 66.8227 18.3851V18.5815C66.8227 18.8502 66.9881 19.093 67.2412 19.186C67.8355 19.4082 68.3832 19.6614 68.8741 19.9404C68.9774 19.9973 69.0859 20.0283 69.1945 20.0283C69.4166 20.0283 69.6337 19.9094 69.7577 19.7027ZM72.703 26.8903C72.703 26.5338 72.9924 26.2444 73.3489 26.2444H73.3541C73.7106 26.2444 74 26.5338 74 26.8903V26.9472C74 28.0375 73.8708 29.0761 73.6125 30.0372C73.535 30.3266 73.2714 30.5177 72.9872 30.5177C72.9356 30.5177 72.8787 30.5126 72.8219 30.4971C72.4757 30.4041 72.269 30.0527 72.362 29.7065C72.5893 28.8539 72.703 27.9238 72.703 26.9472V26.8903ZM49.6571 30.0269C49.5331 29.691 49.1663 29.5205 48.8304 29.6393C48.4945 29.7633 48.324 30.1302 48.4428 30.4661C48.82 31.5099 49.3316 32.4555 49.9568 33.2771C50.086 33.4424 50.2772 33.5303 50.4736 33.5303C50.6079 33.5303 50.7474 33.4889 50.8611 33.4011C51.1453 33.1841 51.2021 32.781 50.9851 32.4968C50.4374 31.7786 49.993 30.9466 49.6571 30.0217V30.0269ZM48.8924 26.2031C48.9182 26.5648 48.9544 26.9058 48.9958 27.2366H48.9906C49.0371 27.5879 48.7839 27.9135 48.4325 27.96C48.4067 27.9651 48.3757 27.9651 48.3498 27.9651C48.0295 27.9651 47.7504 27.7274 47.7091 27.4019C47.6626 27.0505 47.6264 26.6837 47.6006 26.3116V26.2031C47.6006 25.3712 48.2775 24.6943 49.1094 24.6943H49.6468C50.0034 24.6943 50.2927 24.9836 50.2927 25.3402C50.2927 25.6967 50.0034 25.9861 49.6468 25.9861H49.1094C48.9906 25.9861 48.8924 26.0843 48.8924 26.2031ZM57.5217 23.0976C57.6147 23.1441 57.718 23.17 57.8162 23.17C58.0487 23.17 58.2761 23.0408 58.3898 22.8186C58.5551 22.5034 58.4311 22.1107 58.1107 21.9505C58.0539 21.9195 57.9919 21.8575 57.9919 21.7593V19.6872C57.9919 19.3307 57.7025 19.0413 57.346 19.0413C56.9895 19.0413 56.7001 19.3307 56.7001 19.6872V21.7593C56.7001 22.3277 57.0153 22.8393 57.5165 23.0976H57.5217ZM48.8614 10.2312C48.8252 10.2312 48.7839 10.2261 48.7426 10.2209V10.2157C48.3912 10.1486 48.1587 9.81268 48.2258 9.46131C48.4325 8.37102 48.7477 7.35824 49.1714 6.44364C49.3213 6.11811 49.7037 5.97859 50.0292 6.12844C50.3547 6.27829 50.4942 6.66067 50.3444 6.9862C49.9672 7.80263 49.683 8.71723 49.497 9.70417C49.435 10.0142 49.1663 10.2312 48.8614 10.2312ZM55.5426 35.7212C54.6229 35.3801 53.7703 34.9461 53.0159 34.419C52.7213 34.2175 52.3234 34.2899 52.1168 34.5792C51.9152 34.8738 51.9876 35.2768 52.2769 35.4783C53.1244 36.0622 54.07 36.5531 55.0931 36.9303C55.1654 36.9562 55.2429 36.9717 55.3153 36.9717C55.5788 36.9717 55.8268 36.8115 55.9198 36.5479C56.0439 36.2121 55.8733 35.84 55.5375 35.7212H55.5426ZM52.6593 24.6943H55.6718C56.0284 24.6943 56.3177 24.9836 56.3177 25.3402C56.3177 25.6967 56.0284 25.9861 55.6718 25.9861H52.6593C52.3028 25.9861 52.0134 25.6967 52.0134 25.3402C52.0134 24.9836 52.3028 24.6943 52.6593 24.6943Z" fill="#DD524C" fill-rule="evenodd"/>
</svg>