<?xml version="1.0" encoding="utf-8"?>
<svg xmlns="http://www.w3.org/2000/svg" fill="none" height="57" viewBox="0 0 68 57" width="68">
<path clip-rule="evenodd" d="M25.6749 0.175026H42.4374C43.0836 0.175026 43.6074 0.698853 43.6074 1.34503V47.86C43.6074 48.5062 43.0836 49.03 42.4374 49.03H25.6749C25.0288 49.03 24.5049 48.5062 24.5049 47.86V1.34503C24.5049 0.698853 25.0288 0.175026 25.6749 0.175026ZM2.82997 53.48H65.2825C66.2062 53.48 66.955 54.2288 66.955 55.1525C66.955 56.0762 66.2062 56.825 65.2825 56.825H2.82997C1.90627 56.825 1.15747 56.0762 1.15747 55.1525C1.15747 54.2288 1.90627 53.48 2.82997 53.48ZM20.0875 47.905C20.0875 48.5275 20.59 49.03 21.2125 49.03C21.835 49.03 22.3375 48.5275 22.3375 47.905V30.31C22.3375 29.485 21.6625 28.81 20.8375 28.81H2.48499C1.65999 28.8025 0.984985 29.4775 0.984985 30.3025V47.8975C0.984985 48.52 1.48749 49.0225 2.10999 49.0225C2.73249 49.0225 3.23499 48.52 3.23499 47.8975V31.4275C3.23499 31.2175 3.39999 31.0525 3.60999 31.0525H19.7125C19.9225 31.0525 20.0875 31.2175 20.0875 31.4275V47.8975V47.905ZM65.8899 49.03C65.2674 49.03 64.7649 48.5275 64.7649 47.905V15.55C64.7649 15.34 64.5999 15.175 64.3899 15.175H48.2874C48.0774 15.175 47.9124 15.34 47.9124 15.55V47.905C47.9124 48.5275 47.4099 49.03 46.7874 49.03C46.1649 49.03 45.6624 48.5275 45.6624 47.905V14.425C45.6624 13.6 46.3374 12.925 47.1624 12.925H65.5149C66.3399 12.925 67.0149 13.6 67.0149 14.425V47.905C67.0149 48.5275 66.5124 49.03 65.8899 49.03Z" fill="#DB599A" fill-rule="evenodd"/>
</svg>