<?xml version="1.0" encoding="utf-8"?>
<svg xmlns="http://www.w3.org/2000/svg" fill="none" height="62" viewBox="0 0 62 62" width="62">
<path d="M7.4222 50.477C7.42502 50.4778 7.42798 50.4786 7.43107 50.4794C12.6134 56.7413 20.2366 60.9015 28.8496 61.4981L28.98 61.6285L29.0974 61.5112C29.7314 61.548 30.3611 61.575 31.01 61.575C31.6589 61.575 32.2886 61.548 32.9226 61.5112L33.04 61.6285L33.1704 61.4981C41.7833 60.9015 49.4164 56.7413 54.5989 50.4794C54.602 50.4786 54.605 50.4778 54.6078 50.477L54.6108 50.4762C54.6397 50.4683 54.6554 50.4642 54.6711 50.4616L54.9334 50.4179L54.8736 50.1588L54.8625 50.1105C59.0582 44.8763 61.58 38.2283 61.58 30.995V30.9949C61.5699 14.117 47.8882 0.425003 31 0.425003C14.1119 0.425003 0.419998 14.1169 0.419998 31.005C0.419998 38.2505 2.94036 44.9089 7.15901 50.1475L7.1564 50.1588L7.09661 50.4179L7.35891 50.4616C7.37455 50.4642 7.39026 50.4683 7.41921 50.4762L7.4222 50.477ZM31 58.065H30.75V58.0721C30.6159 58.0692 30.4831 58.0644 30.3492 58.0591C29.3766 57.062 27.9248 55.4517 26.3888 53.2907C27.9314 53.3662 29.4762 53.415 31.03 53.415C31.9314 53.415 32.8241 53.405 33.7174 53.3749C34.3858 53.359 35.0536 53.3304 35.7208 53.2944C34.247 55.3147 32.8082 56.9063 31.6659 58.0459C31.5673 58.0477 31.4709 58.0514 31.3775 58.0551L31.3752 58.0552C31.247 58.0602 31.1243 58.065 31 58.065ZM33.6135 49.8851L33.6131 49.8851C30.4264 49.9736 27.239 49.8875 24.0508 49.6554C21.8682 45.8321 19.8867 40.9689 19.1937 35.2488C23.1294 35.5632 27.0746 35.725 31.02 35.725C32.1414 35.725 33.2638 35.715 34.3867 35.6849C37.1909 35.6172 40.0047 35.4748 42.819 35.2487C42.1758 40.9889 40.2788 45.8152 38.0889 49.6459C36.596 49.7606 35.1044 49.8464 33.6135 49.8851ZM27.8834 14.6051C26.1417 14.6514 24.4 14.732 22.6505 14.8468C25.1469 9.70992 28.3377 6.02463 30.4432 3.94411C30.5265 3.94241 30.6096 3.93855 30.6888 3.93486L30.6916 3.93473C30.8002 3.92968 30.9018 3.925 31 3.925C31.1719 3.925 31.3445 3.93193 31.5214 3.94015C33.2213 5.65142 36.5481 9.42166 39.1983 14.8466C35.4329 14.5987 31.6586 14.5182 27.8842 14.6051L27.8834 14.6051ZM27.9754 18.1049L27.9764 18.1049C32.234 17.9965 36.502 18.1315 40.7614 18.4714C42.1799 22.2953 43.1391 26.746 43.0642 31.7145C40.1436 31.9539 37.224 32.1169 34.3142 32.1851C29.198 32.3031 24.062 32.14 18.9445 31.7146C18.9217 30.6628 18.9353 29.5948 19.0094 28.5019C19.2634 24.7903 20.0552 21.4533 21.1397 18.4713C23.4231 18.2882 25.7045 18.1537 27.9754 18.1049ZM8.0269 16.6958C11.8274 10.629 17.955 6.16124 25.1562 4.57686C22.9977 7.19217 20.5725 10.745 18.6779 15.1807C15.1158 15.5328 11.5545 16.0434 8.0269 16.6958ZM52.5553 47.3525C49.1559 48.1635 45.7208 48.7858 42.2754 49.2194C44.2551 45.2619 45.8445 40.4729 46.3701 34.9229C50.2599 34.5245 54.1309 33.9705 57.9657 33.2696C57.5276 38.5336 55.5837 43.3744 52.5553 47.3525ZM19.8648 49.2414C16.3697 48.8157 12.8844 48.1833 9.43484 47.3528C6.40635 43.3745 4.46234 38.5336 4.02426 33.2695C7.86887 33.971 11.7496 34.5343 15.6315 34.933C16.1968 40.4584 17.8709 45.2746 19.8648 49.2414ZM3.94904 29.6894C4.09814 26.5036 4.79841 23.4594 5.96941 20.663C9.71362 19.8839 13.5033 19.2784 17.3033 18.8466C16.3988 21.6966 15.7421 24.8342 15.5106 28.2678C15.4369 29.3276 15.4138 30.3614 15.4258 31.3768C11.5789 30.9672 7.75034 30.4018 3.94904 29.6894ZM56.03 20.6728C57.1918 23.479 57.8918 26.5233 58.0409 29.6994C54.2391 30.4119 50.41 30.9774 46.5625 31.387C46.5869 26.7623 45.8033 22.5562 44.5903 18.8465C48.4279 19.2785 52.2382 19.8843 56.03 20.6728ZM43.1812 15.1704C41.2327 10.6634 38.7723 7.07369 36.7304 4.55026C43.9728 6.1209 50.1476 10.5933 53.9632 16.6858C50.3867 16.0249 46.7927 15.5225 43.1812 15.1704ZM13.7275 51.842C16.463 52.3423 19.214 52.7304 21.9734 52.9923C23.0465 54.7077 24.132 56.1957 25.1238 57.4375C20.8615 56.4937 16.9726 54.5408 13.7275 51.842ZM40.1559 52.9722C42.8625 52.7115 45.5616 52.3406 48.2462 51.8454C45.021 54.519 41.1779 56.4587 36.9643 57.4108C38.0034 56.1416 39.0902 54.6558 40.1559 52.9722Z" fill="#4E80EE" stroke="#4E80EE" stroke-width="0.5"/>
</svg>