<?xml version="1.0" encoding="utf-8"?>
<svg xmlns="http://www.w3.org/2000/svg" fill="none" height="78" viewBox="0 0 74 78" width="74">
<path clip-rule="evenodd" d="M60.565 10.7473C67.9325 10.7019 72.7012 18.569 69.1537 25.0937L69.1638 25.0836C75.5624 28.8229 75.6684 38.2392 69.1436 41.8724L69.2044 42.0187L69.2044 42.0188C69.7282 43.2779 70.2323 44.4899 70.3294 45.8842C70.718 51.5915 66.2269 56.2593 60.5801 56.3602C60.1916 64.7218 50.7501 68.456 44.8157 63.652C44.5281 63.0565 44.1496 62.4863 43.6702 61.9464L44.1446 60.7655C44.74 60.7454 45.4061 60.71 46.1681 60.4426C46.1951 60.4349 46.2192 60.4242 46.2448 60.4128L46.269 60.4022C46.6172 60.7857 46.9805 61.1137 47.3237 61.3459C51.7845 64.3484 57.5372 60.922 57.1941 55.6588C54.8375 54.6293 52.4759 52.6209 51.6685 50.1079C50.9973 48.0389 53.3136 46.7925 54.5146 48.4325C54.8837 48.9373 55.1133 49.3776 55.3238 49.7812C55.7635 50.6245 56.1199 51.3079 57.4918 52.086C63.3101 55.3863 69.517 48.8766 66.0048 43.1845C65.8624 42.9553 65.6949 42.7575 65.5338 42.5672C65.0953 42.0493 64.704 41.5874 64.9956 40.7017C65.2439 39.9533 65.9784 39.6661 66.7031 39.3828C67.0094 39.263 67.3139 39.144 67.5792 38.9911C71.7424 36.589 71.7373 30.3469 67.5439 27.9953C67.3337 27.8777 67.0567 27.7721 66.763 27.6601C66.0485 27.3878 65.2356 27.0778 65.046 26.4663C64.7325 25.4512 65.1311 24.9578 65.5948 24.3838L65.5948 24.3837L65.5949 24.3836C65.7581 24.1815 65.9294 23.9695 66.0805 23.7212C68.8004 19.2502 65.0107 13.1392 59.8787 14.1434C59.5579 14.2048 59.4725 14.4116 59.3729 14.653C59.3251 14.7686 59.2741 14.8921 59.1924 15.0114C59.1409 15.0878 59.0894 15.165 59.0377 15.2425C58.7449 15.6812 58.4455 16.1299 58.1024 16.5202C57.1235 17.6304 53.8384 20.3957 52.6575 18.3166C51.8089 16.8222 52.9776 16.1436 54.0804 15.5033C54.4597 15.2831 54.8311 15.0674 55.11 14.8247C58.2841 12.0593 57.7744 6.74059 54.1563 4.60099C50.1294 2.22421 44.9419 4.81798 44.5735 9.49079C44.3635 12.1485 44.4573 14.9532 44.5511 17.7581V17.7582V17.7583C44.6354 20.2791 44.7197 22.8001 44.5836 25.2148C45.7997 28.1013 50.2303 28.2022 51.618 25.3763C51.751 25.1041 51.8292 24.8095 51.9059 24.5203C52.0767 23.8768 52.2405 23.2598 52.9855 22.9743C53.6264 22.7271 54.0049 22.7523 54.5751 23.1509C55.877 24.0643 55.0999 25.9365 54.4742 27.0618C52.5465 30.5336 48.0402 31.8355 44.5735 29.8321V37.4015C43.8468 36.2661 42.4389 34.7573 41.1925 33.743V29.8372C37.2464 32.1635 31.9074 29.9987 30.6711 25.6084C30.328 24.3923 30.3986 22.8583 32.0286 22.8078C33.3097 22.7693 33.5437 23.5698 33.7928 24.4219L33.7928 24.422C33.8704 24.6875 33.9495 24.958 34.0622 25.2098C35.3843 28.1719 39.9108 28.1921 41.1875 25.2199C41.0485 22.7979 41.1336 20.269 41.2187 17.7407C41.3128 14.9432 41.407 12.1464 41.1976 9.49583C40.7989 4.46979 34.7838 1.91639 30.8578 5.14598C27.5576 7.86085 27.8755 13.0332 31.4028 15.3949C31.576 15.5119 31.7798 15.6007 31.9841 15.6897C32.2024 15.7848 32.4213 15.8802 32.6038 16.0105C34.3347 17.2569 33.1337 19.6337 31.0546 18.9928C29.2784 18.4478 27.5879 16.505 26.5786 15.0215C26.4969 14.9022 26.4459 14.7787 26.3982 14.6631C26.2985 14.4217 26.2131 14.2149 25.8923 14.1535C20.7553 13.1493 16.9656 19.2552 19.6905 23.7312C19.824 23.9503 19.9866 24.1549 20.1476 24.3575C20.6322 24.967 21.1025 25.5586 20.7199 26.4714C20.4353 27.1486 19.8858 27.3347 19.323 27.5252C19.0974 27.6016 18.8697 27.6787 18.656 27.7884C16.3297 28.9793 15.1136 31.2501 15.0783 33.5159C14.7099 33.2283 14.291 32.9457 13.741 32.7236C13.1102 32.4663 12.4694 32.325 11.8386 32.2796C12.212 29.4335 13.8117 26.7136 16.6174 25.0937C13.0598 18.569 17.8386 10.6918 25.206 10.7473C24.7771 1.00303 37.0142 -3.46289 42.8325 4.50511C42.9113 4.52025 43.4572 3.9337 43.9488 3.40553C44.2762 3.0537 44.5796 2.72778 44.7047 2.62287C51.2698 -2.9078 61.0444 2.40083 60.565 10.7473ZM60.2251 41.9629C60.6283 42.5732 60.9871 43.1162 60.3884 44.0373V44.0322C59.5356 45.3392 58.1731 44.7993 57.3859 43.7446C54.6508 40.081 56.9973 34.1416 61.5692 33.5209C62.4472 33.3998 64.062 33.415 64.8593 33.8035C66.464 34.5907 65.8433 36.9625 64.1377 36.9726C63.9505 36.9752 63.7391 36.9169 63.5247 36.8578L63.5247 36.8578C63.3346 36.8054 63.1422 36.7523 62.9619 36.7404C60.6306 36.5941 58.9502 38.9154 59.7576 41.1155C59.8749 41.4328 60.054 41.7039 60.2251 41.9629ZM41.8838 62.3248L43.0899 59.3173C43.4019 59.2809 43.6973 59.2719 43.9866 59.263C44.5395 59.2462 45.0704 59.23 45.6534 59.0246C48.8628 57.8942 48.8527 54.2256 48.5903 51.3594C48.3582 48.8463 46.1883 47.277 43.8115 47.277C43.5794 47.277 43.3473 47.2921 43.1151 47.3224L41.8838 44.335C41.8738 44.2177 42.2131 43.8957 42.491 43.632C42.6316 43.4986 42.7564 43.3801 42.8123 43.3106C43.8721 41.9936 44.1799 40.2829 43.5491 38.6933C43.0798 37.5024 40.2741 34.6563 39.0933 34.1568C38.4726 33.8944 37.862 33.7733 37.2766 33.7733C35.793 33.7733 34.4457 34.5504 33.3809 35.7716L30.328 34.5403C30.5853 32.1988 29.455 29.8624 27.0732 29.2266C26.5433 29.0853 25.4483 29.0147 24.3482 29.0147C23.2532 29.0147 22.1531 29.0853 21.6182 29.2266C19.2515 29.8574 18.0959 32.2039 18.3634 34.5403L15.376 35.7716C15.1437 35.5878 14.9374 35.4009 14.7366 35.2189L14.7366 35.2189C14.2699 34.796 13.8325 34.3996 13.1657 34.1315C12.5602 33.8843 11.9849 33.7783 11.445 33.7783C9.31547 33.7783 7.65021 35.4486 6.20699 37.1139C4.09766 39.5411 4.44585 42.1954 6.80749 44.2795L5.60144 47.2871C5.34703 47.3071 5.10943 47.3169 4.88099 47.3263C4.18959 47.3548 3.58204 47.3798 2.8462 47.6756C-0.191631 48.8968 -0.151262 52.414 0.111142 55.2349C0.343269 57.758 2.51819 59.3173 4.90506 59.3173C5.13214 59.3173 5.35922 59.3021 5.59135 59.2769L6.82263 62.2643C6.64256 62.4886 6.46128 62.6891 6.28532 62.8837L6.2853 62.8838C5.83994 63.3763 5.42865 63.8312 5.15737 64.5401C4.02197 67.4922 6.0556 69.5813 8.11446 71.3828C9.22463 72.3567 10.3701 72.826 11.4853 72.826C12.8377 72.826 14.1548 72.1397 15.3255 70.8277L18.3331 72.0338C18.3531 72.2882 18.3629 72.5258 18.3723 72.7542C18.4008 73.4456 18.4258 74.0532 18.7216 74.789C19.6653 77.1204 21.9563 77.6452 24.2422 77.6452C24.9386 77.6452 25.635 77.5947 26.296 77.5342C29.0614 77.2818 30.6661 74.6931 30.333 72.059L33.3204 70.8277H33.3254C33.4468 70.8277 33.7539 71.152 34.0107 71.4233C34.1488 71.5692 34.2724 71.6997 34.3448 71.7562C35.2026 72.4425 36.2573 72.8159 37.312 72.8159C38.1194 72.8159 38.9268 72.5989 39.6484 72.1397C40.6122 71.5241 43.0092 69.117 43.4684 68.1028C44.4574 65.9177 43.5895 63.8084 41.8838 62.3248ZM40.6374 67.26C40.2489 67.7697 38.8763 69.1322 38.3666 69.5359C37.9579 69.8588 37.5945 69.99 37.2665 69.99C36.5638 69.99 36.0071 69.3959 35.4475 68.7986C34.8819 68.1949 34.3133 67.588 33.5878 67.588H33.5777C33.2643 67.588 32.4541 68.0159 31.7806 68.3715L31.7804 68.3716C31.4564 68.5426 31.164 68.697 30.9739 68.779C30.7606 68.8686 30.4135 68.9828 30.0246 69.1108L30.0245 69.1108C29.1434 69.4007 28.048 69.7612 27.8099 70.0657C27.4367 70.5385 27.4539 71.3003 27.4713 72.0719C27.4988 73.2933 27.5268 74.5393 26.0084 74.7032C25.746 74.7335 25.1909 74.7486 24.5803 74.7486C23.6367 74.7486 22.5669 74.7032 22.2389 74.5872C21.1446 74.1934 21.1846 73.1254 21.2242 72.0692C21.2536 71.2842 21.2828 70.5058 20.8461 70.0153C20.6087 69.7507 19.5599 69.4042 18.6892 69.1164L18.6891 69.1164L18.6888 69.1163C18.2641 68.976 17.8819 68.8497 17.6569 68.7537C17.4204 68.6527 17.086 68.4674 16.7389 68.2751L16.7388 68.2751C16.2193 67.9873 15.6714 67.6839 15.381 67.6234C15.2902 67.6032 15.2044 67.5981 15.1186 67.5981C14.409 67.5981 13.8371 68.1997 13.2658 68.8007C12.6954 69.4007 12.1256 70.0001 11.4197 70.0001C11.1069 70.0001 10.7637 69.879 10.3853 69.5914C9.8756 69.2028 8.51312 67.8303 8.10942 67.3206C7.09705 66.0395 7.9704 65.2231 8.85 64.4009C9.45673 63.8338 10.0664 63.2639 10.0623 62.5368C10.0623 62.2069 9.62941 61.3926 9.27192 60.7202C9.10443 60.4052 8.9535 60.1213 8.8714 59.9329C8.77996 59.7185 8.66143 59.3618 8.52874 58.9624C8.23671 58.0834 7.87607 56.9979 7.58461 56.7689C7.21119 56.4762 6.6561 56.4258 6.06065 56.4258C5.90169 56.4258 5.74021 56.4296 5.57873 56.4333C5.41725 56.4371 5.25577 56.4409 5.09682 56.4409C4.0472 56.4409 3.09346 56.2845 2.94712 54.9674C2.87648 54.3013 2.86638 51.7378 3.06319 51.1979C3.38615 50.3097 4.15317 50.1685 4.99589 50.1685C5.19076 50.1685 5.38817 50.1761 5.58493 50.1837H5.58507H5.58521C5.78069 50.1912 5.97553 50.1987 6.16662 50.1987C6.74189 50.1987 7.2667 50.1331 7.63507 49.8051C7.88225 49.588 8.22671 48.555 8.51625 47.6868L8.51627 47.6867C8.66414 47.2433 8.79769 46.8428 8.89663 46.6159C8.9962 46.3849 9.1783 46.0564 9.36817 45.7139C9.65941 45.1886 9.96894 44.6303 10.027 44.3401C10.199 43.5065 9.52593 42.8667 8.8533 42.2273C7.98666 41.4034 7.12074 40.5802 8.064 39.3443C8.45256 38.8346 9.82514 37.4721 10.3348 37.0684C10.7435 36.7455 11.1069 36.6143 11.4349 36.6143C12.1376 36.6143 12.6943 37.2084 13.2539 37.8057C13.8195 38.4094 14.3881 39.0163 15.1136 39.0163H15.1237C15.4536 39.0163 16.2678 38.5834 16.9402 38.2259L16.9403 38.2259C17.2553 38.0584 17.5392 37.9075 17.7275 37.8254C17.9419 37.734 18.2986 37.6155 18.6979 37.4828L18.6981 37.4827C19.5771 37.1907 20.6625 36.83 20.8915 36.5386C21.2633 36.0689 21.2463 35.3072 21.2292 34.5349C21.2031 33.3572 21.1764 32.1549 22.5265 31.9263C22.8696 31.8658 23.5862 31.8405 24.2977 31.8405C25.0092 31.8405 25.6602 31.8658 26.0084 31.9011C27.503 32.0641 27.4859 33.2501 27.4687 34.4487C27.4539 35.4758 27.4389 36.5122 28.3751 36.9221C28.8646 37.1367 29.3968 37.3098 29.9385 37.4861L29.9386 37.4861C30.5305 37.6787 31.1339 37.875 31.7056 38.1332C31.974 38.2558 32.2092 38.3985 32.429 38.5319C32.8335 38.7772 33.1861 38.9911 33.5979 38.9911C33.8906 38.9911 34.2136 38.8851 34.6072 38.6075C34.9152 38.3893 35.2016 38.079 35.4893 37.7674C36.0266 37.1856 36.5681 36.5991 37.2615 36.5991C37.5744 36.5991 37.9226 36.7202 38.3111 37.018C38.8208 37.4065 40.1833 38.7791 40.587 39.2888C41.5993 40.5699 40.726 41.3863 39.8464 42.2085C39.2397 42.7756 38.6299 43.3455 38.6341 44.0726C38.6341 44.4001 39.0606 45.2025 39.4166 45.8721C39.5872 46.1931 39.7416 46.4835 39.825 46.6765C39.9177 46.895 40.035 47.2513 40.1658 47.6485L40.1659 47.6487C40.4548 48.5264 40.8096 49.6042 41.1118 49.8404C41.4852 50.1331 42.0403 50.1836 42.6357 50.1836C42.7947 50.1836 42.9562 50.1798 43.1176 50.176C43.2791 50.1722 43.4406 50.1685 43.5996 50.1685C44.6492 50.1685 45.6029 50.3249 45.7493 51.642C45.8199 52.3081 45.83 54.8715 45.6332 55.4115C45.3102 56.2996 44.5432 56.4409 43.7005 56.4409C43.5057 56.4409 43.3084 56.4333 43.1117 56.4257L43.1113 56.4257H43.1112C42.9157 56.4182 42.7208 56.4106 42.5298 56.4106C41.9545 56.4106 41.4297 56.4762 41.0613 56.8042C40.8036 57.0352 40.4636 58.0612 40.1771 58.9261L40.1771 58.9261C40.0316 59.365 39.9 59.7624 39.7998 59.9935C39.6993 60.2285 39.5149 60.5603 39.3232 60.9051L39.3232 60.9052C39.0334 61.4265 38.7271 61.9777 38.6694 62.2693C38.4974 63.1028 39.1705 63.7427 39.8431 64.3821C40.7097 65.206 41.5756 66.0292 40.6324 67.2651L40.6374 67.26ZM24.2018 42.7656C32.9217 42.7606 38.2102 52.631 32.6795 59.7815H32.6846C30.5752 62.5065 27.4769 63.8286 24.3886 63.8286C20.7553 63.8286 17.1321 62.0019 15.1489 58.4745C11.5257 52.0305 15.6989 43.5074 23.1018 42.8161C23.4752 42.7808 23.8385 42.7656 24.2018 42.7656ZM18.8932 58.7571C20.4121 60.271 22.3701 60.9825 24.3078 60.9825C27.4567 60.9825 30.5551 59.1154 31.645 55.8101C33.4011 50.5015 29.3137 45.5764 24.3633 45.5764C23.2986 45.5764 22.1934 45.8035 21.0984 46.303C16.2793 48.5082 15.1439 55.0078 18.8932 58.7571Z" fill="#9D59EF" fill-rule="evenodd"/>
</svg>